# Blender v2.79 (sub 0) OBJ File: 'new drops.blend'
# www.blender.org
v 0.270343 0.398080 -0.072647
v 0.270233 0.398080 0.072975
v -0.269652 0.398080 -0.073321
v -0.269876 0.398080 0.072650
v -0.072415 0.398080 0.274204
v 0.070369 0.398080 0.274886
v -0.072303 0.398080 -0.272728
v 0.071617 0.398080 -0.272956
v 0.070829 0.398080 0.072855
v -0.072374 0.398080 0.072769
v 0.071161 0.398080 -0.072895
v -0.072344 0.398080 -0.073074
v 0.270343 0.381392 -0.072647
v 0.270233 0.381392 0.072975
v -0.269652 0.381392 -0.073321
v -0.269876 0.381392 0.072650
v -0.072415 0.381392 0.274204
v 0.070369 0.381392 0.274886
v -0.072303 0.381392 -0.272728
v 0.071617 0.381392 -0.272956
v -0.072344 0.381392 -0.073074
v 0.071161 0.381392 -0.072895
v 0.070829 0.381392 0.072855
v -0.072374 0.381392 0.072769
v -0.178258 0.139360 0.310464
v -0.178258 0.268720 0.310464
v 0.178258 0.268720 0.310464
v 0.178258 0.139360 0.310464
v 0.059419 0.268720 0.310464
v 0.059419 0.139360 0.310464
v -0.059419 0.268720 0.310464
v -0.059419 0.139360 0.310464
v 0.310464 0.268720 -0.178258
v 0.310464 0.139360 -0.178258
v 0.310464 0.139360 0.178258
v 0.310464 0.268720 0.178258
v 0.310464 0.268720 -0.059419
v 0.310464 0.139360 -0.059419
v 0.310464 0.268720 0.059419
v 0.310464 0.139360 0.059419
v -0.178258 0.268720 -0.310464
v -0.178258 0.139360 -0.310464
v 0.178258 0.139360 -0.310464
v 0.178258 0.268720 -0.310464
v -0.059419 0.268720 -0.310464
v -0.059419 0.139360 -0.310464
v 0.059419 0.268720 -0.310464
v 0.059419 0.139360 -0.310464
v -0.310464 0.268720 0.178258
v -0.310464 0.139360 0.178258
v -0.310464 0.139360 -0.178258
v -0.310464 0.268720 -0.178258
v -0.310464 0.268720 0.059419
v -0.310464 0.139360 0.059419
v -0.310464 0.268720 -0.059419
v -0.310464 0.139360 -0.059419
v -0.196084 0.155512 0.341510
v -0.182080 0.139360 0.317120
v -0.182080 0.268720 0.317120
v -0.196084 0.252568 0.341510
v 0.196084 0.252568 0.341510
v 0.182080 0.268720 0.317120
v 0.182080 0.139360 0.317120
v 0.196084 0.155512 0.341510
v 0.065362 0.252568 0.341510
v 0.060693 0.268720 0.317120
v 0.060693 0.139360 0.317120
v 0.065362 0.155512 0.341510
v -0.060693 0.268720 0.317120
v -0.065361 0.252568 0.341510
v -0.065361 0.155512 0.341510
v -0.060693 0.139360 0.317120
v 0.341511 0.252568 -0.196084
v 0.317120 0.268720 -0.182080
v 0.317120 0.139360 -0.182080
v 0.341511 0.155512 -0.196084
v 0.341511 0.155512 0.196084
v 0.317120 0.139360 0.182080
v 0.317120 0.268720 0.182080
v 0.341511 0.252568 0.196084
v 0.341511 0.252568 -0.065361
v 0.317120 0.268720 -0.060693
v 0.317120 0.139360 -0.060693
v 0.341511 0.155512 -0.065361
v 0.317120 0.268720 0.060693
v 0.341511 0.252568 0.065361
v 0.341511 0.155512 0.065361
v 0.317120 0.139360 0.060693
v -0.196084 0.252568 -0.341510
v -0.182080 0.268720 -0.317120
v -0.182080 0.139360 -0.317120
v -0.196084 0.155512 -0.341510
v 0.196084 0.155512 -0.341510
v 0.182080 0.139360 -0.317120
v 0.182080 0.268720 -0.317120
v 0.196084 0.252568 -0.341510
v -0.065361 0.252568 -0.341510
v -0.060693 0.268720 -0.317120
v -0.060693 0.139360 -0.317120
v -0.065361 0.155512 -0.341510
v 0.060693 0.268720 -0.317120
v 0.065362 0.252568 -0.341510
v 0.065362 0.155512 -0.341510
v 0.060693 0.139360 -0.317120
v -0.341510 0.252568 0.196084
v -0.317120 0.268720 0.182080
v -0.317120 0.139360 0.182080
v -0.341510 0.155512 0.196084
v -0.341510 0.155512 -0.196084
v -0.317120 0.139360 -0.182080
v -0.317120 0.268720 -0.182080
v -0.341510 0.252568 -0.196084
v -0.341510 0.252568 0.065361
v -0.317120 0.268720 0.060693
v -0.317120 0.139360 0.060693
v -0.341510 0.155512 0.065361
v -0.317120 0.268720 -0.060693
v -0.341510 0.252568 -0.065361
v -0.341510 0.155512 -0.065361
v -0.317120 0.139360 -0.060693
v -0.153059 0.010000 0.249628
v -0.178258 0.048022 0.310464
v -0.249628 0.010000 0.153059
v -0.310464 0.048022 0.178258
v -0.249628 0.010000 -0.153059
v -0.310464 0.048022 -0.178258
v -0.153059 0.010000 -0.249628
v -0.178258 0.048022 -0.310464
v 0.249628 0.010000 0.153059
v 0.310464 0.048022 0.178258
v 0.153059 0.010000 0.249628
v 0.178258 0.048022 0.310464
v 0.153059 0.010000 -0.249628
v 0.178258 0.048022 -0.310464
v 0.249628 0.010000 -0.153059
v 0.310464 0.048022 -0.178258
v 0.310464 0.048022 -0.059419
v 0.249628 0.010000 -0.059419
v 0.249628 0.010000 0.059419
v 0.310464 0.048022 0.059419
v -0.310464 0.048022 0.059419
v -0.249628 0.010000 0.059419
v -0.249628 0.010000 -0.059419
v -0.310464 0.048022 -0.059419
v 0.059419 0.048022 0.310464
v 0.059419 0.010000 0.249628
v -0.059419 0.010000 0.249628
v -0.059419 0.048022 0.310464
v -0.059419 0.048022 -0.310464
v -0.059419 0.010000 -0.249628
v 0.059419 0.010000 -0.249628
v 0.059419 0.048022 -0.310464
v -0.282189 0.398080 0.166546
v -0.310464 0.380409 0.178258
v -0.166546 0.398080 0.282190
v -0.178258 0.380409 0.310464
v -0.166546 0.398080 -0.282190
v -0.178258 0.380409 -0.310464
v -0.282189 0.398080 -0.166546
v -0.310464 0.380409 -0.178258
v 0.166547 0.398080 0.282190
v 0.178258 0.380409 0.310464
v 0.282190 0.398080 0.166546
v 0.310464 0.380409 0.178258
v 0.282190 0.398080 -0.166546
v 0.310464 0.380409 -0.178258
v 0.166547 0.398080 -0.282190
v 0.178258 0.380409 -0.310464
v 0.310464 0.380409 0.059419
v 0.282190 0.398080 -0.068741
v 0.310464 0.380409 -0.059419
v -0.310464 0.380409 0.059419
v -0.310464 0.380409 -0.059419
v 0.059419 0.380409 0.310464
v -0.059419 0.380409 0.310464
v 0.059419 0.380409 -0.310464
v 0.068614 0.398080 -0.282190
v -0.059419 0.380409 -0.310464
vt 0.759641 0.613263
vt 0.722773 0.632038
vt 0.697815 0.582577
vt 0.914939 0.347764
vt 0.954942 0.353661
vt 0.937250 0.368792
vt 0.973085 0.181655
vt 1.000896 0.225219
vt 0.973085 0.225219
vt 0.591513 0.181655
vt 0.619325 0.225219
vt 0.591513 0.225219
vt 0.718704 0.181655
vt 0.746515 0.225219
vt 0.718704 0.225219
vt 0.876340 0.407720
vt 0.917530 0.397954
vt 0.909575 0.421565
vt 0.795642 0.736583
vt 0.829290 0.751032
vt 0.784255 0.748218
vt 0.663080 0.181655
vt 0.690892 0.225219
vt 0.663080 0.225219
vt 0.945273 0.181655
vt 0.945273 0.225219
vt 0.619325 0.181655
vt 0.917461 0.181655
vt 0.917461 0.225219
vt 0.818083 0.181655
vt 0.845894 0.225219
vt 0.818083 0.225219
vt 0.845894 0.181655
vt 0.873706 0.225219
vt 0.790271 0.181655
vt 0.790271 0.225219
vt 0.563701 0.181655
vt 0.563701 0.225219
vt 0.746515 0.181655
vt 0.535890 0.181655
vt 0.535890 0.225219
vt 0.492134 0.181655
vt 0.634429 0.395630
vt 0.681606 0.362185
vt 0.681711 0.395601
vt 0.842254 0.660485
vt 0.841373 0.706505
vt 0.833590 0.705223
vt 0.683635 0.706578
vt 0.654848 0.642156
vt 0.665100 0.642892
vt 0.695514 0.576064
vt 0.784471 0.756111
vt 0.690892 0.181655
vt 0.689017 0.755221
vt 0.673541 0.708755
vt 0.634514 0.315896
vt 0.600333 0.362067
vt 0.600352 0.315891
vt 0.634465 0.362117
vt 0.634380 0.442297
vt 0.600320 0.395652
vt 0.553609 0.361999
vt 0.839865 0.612577
vt 0.850038 0.660993
vt 0.761565 0.605341
vt 0.737275 0.759210
vt 0.736836 0.751144
vt 0.792867 0.606804
vt 0.792483 0.613301
vt 0.843177 0.609070
vt 0.832334 0.754578
vt 0.685889 0.759210
vt 0.907737 0.697175
vt 0.923635 0.650184
vt 0.940111 0.675079
vt 0.961084 0.226867
vt 0.928513 0.231133
vt 0.928585 0.229361
vt 0.858842 0.598237
vt 0.907167 0.627869
vt 0.875199 0.643471
vt 0.566145 0.230099
vt 0.534338 0.231826
vt 0.534532 0.230092
vt 0.994282 0.225465
vt 0.961543 0.228683
vt 0.933283 0.330325
vt 0.973618 0.337221
vt 0.697739 0.229719
vt 0.665629 0.231846
vt 0.665772 0.230101
vt 0.854480 0.568189
vt 0.888691 0.534951
vt 0.891861 0.563302
vt 0.595524 0.235981
vt 0.566306 0.231846
vt 0.856230 0.462141
vt 0.899804 0.446946
vt 0.890410 0.470788
vt 0.899459 0.236138
vt 0.858199 0.237578
vt 0.858103 0.235916
vt 0.899122 0.287909
vt 0.929143 0.292641
vt 0.929258 0.294456
vt 0.884442 0.508699
vt 0.850283 0.507957
vt 0.727580 0.235739
vt 0.697910 0.231490
vt 0.894580 0.589905
vt 0.503837 0.245298
vt 0.452723 0.282989
vt 0.456170 0.236458
vt 0.865759 0.434576
vt 0.858048 0.276920
vt 0.899355 0.246460
vt 0.898956 0.277902
vt 0.925788 0.722814
vt 0.989396 0.731547
vt 0.959763 0.759210
vt 0.963350 0.238626
vt 1.000896 0.283942
vt 0.964222 0.284011
vt 0.955397 0.699055
vt 0.636572 0.246559
vt 0.595448 0.276991
vt 0.595794 0.245815
vt 0.797812 0.293437
vt 0.829397 0.291340
vt 0.829253 0.293056
vt 0.566600 0.241346
vt 0.567019 0.282154
vt 0.768532 0.246629
vt 0.727444 0.277086
vt 0.727809 0.245673
vt 0.851369 0.538316
vt 0.928583 0.240738
vt 0.929063 0.282761
vt 0.890675 0.671042
vt 0.698252 0.241105
vt 0.698694 0.282386
vt 0.951966 0.313311
vt 0.992430 0.320398
vt 0.768474 0.287651
vt 0.797639 0.291698
vt 0.828915 0.231871
vt 0.828742 0.230130
vt 0.666280 0.293921
vt 0.698391 0.291796
vt 0.698247 0.293541
vt 0.595215 0.287143
vt 0.636341 0.286182
vt 0.636434 0.287897
vt 0.727255 0.287342
vt 0.727355 0.285646
vt 0.534850 0.293806
vt 0.566748 0.291475
vt 0.566610 0.293202
vt 0.456823 0.295427
vt 0.503977 0.286963
vt 0.504237 0.288787
vt 0.595314 0.285498
vt 0.962693 0.294085
vt 0.962290 0.295937
vt 0.899378 0.237846
vt 0.995801 0.296122
vt 0.996890 0.294250
vt 0.829263 0.241330
vt 0.829699 0.282083
vt 0.797291 0.282243
vt 0.768193 0.277828
vt 0.665767 0.282534
vt 0.636205 0.277960
vt 0.534113 0.282352
vt 0.503205 0.278067
vt 0.768671 0.238135
vt 0.727673 0.237453
vt 0.857801 0.287074
vt 0.857903 0.285429
vt 0.768771 0.236494
vt 0.797155 0.232225
vt 0.797299 0.230510
vt 0.636762 0.236300
vt 0.636661 0.237997
vt 0.666108 0.292150
vt 0.595615 0.237641
vt 0.505128 0.234853
vt 0.504823 0.236592
vt 0.460840 0.225465
vt 0.459965 0.227179
vt 0.796853 0.241479
vt 0.534641 0.292030
vt 0.665326 0.241256
vt 0.768380 0.285993
vt 0.533754 0.241220
vt 0.899044 0.286180
vt 0.995429 0.227281
vt 0.935401 0.406763
vt 0.951050 0.380720
vt 1.000896 0.708158
vt 0.972273 0.684456
vt 0.927171 0.617460
vt 0.914761 0.585343
vt 0.906076 0.508622
vt 0.909618 0.475768
vt 1.000896 0.337968
vt 0.985960 0.351230
vt 0.941883 0.637127
vt 0.909953 0.531864
vt 0.928849 0.428079
vt 0.913453 0.561576
vt 0.966838 0.367950
vt 0.918924 0.454926
vt 0.959419 0.663002
vt 0.666215 0.540656
vt 0.563931 0.540656
vt 0.563931 0.477704
vt 0.850037 0.470413
vt 0.840841 0.510564
vt 0.840565 0.473979
vt 0.786806 0.565272
vt 0.745997 0.575818
vt 0.749542 0.565964
vt 0.681956 0.511725
vt 0.693160 0.470677
vt 0.691977 0.508239
vt 0.702035 0.534410
vt 0.707930 0.525499
vt 0.723951 0.555729
vt 0.750140 0.416808
vt 0.790699 0.408960
vt 0.786793 0.418370
vt 0.811195 0.429130
vt 0.830635 0.449569
vt 0.830811 0.534883
vt 0.810856 0.554795
vt 0.725477 0.425974
vt 0.709376 0.454429
vt 0.703989 0.445710
vt 0.678258 0.652059
vt 0.773260 0.618368
vt 0.670259 0.648375
vt 1.000896 0.181656
vt 0.889119 0.381357
vt 0.724856 0.741574
vt 0.793384 0.625125
vt 0.700287 0.719158
vt 0.836625 0.649592
vt 0.820360 0.714234
vt 0.873706 0.181655
vt 0.492134 0.225219
vt 0.600301 0.442266
vt 0.553500 0.395681
vt 0.858393 0.245760
vt 0.999792 0.237351
vt 0.970725 0.296368
vt 0.456027 0.293555
vt 0.666215 0.477704
vt 0.681711 0.493199
vt 0.681711 0.525161
vt 0.646549 0.560322
vt 0.583596 0.560322
vt 0.631053 0.442542
vt 0.646549 0.458038
vt 0.583596 0.458038
vt 0.599092 0.442542
vt 0.548435 0.525161
vt 0.548435 0.493199
vt 0.631053 0.575818
vt 0.599092 0.575818
vt 0.850038 0.514201
vt 0.790673 0.574472
vt 0.683790 0.466646
vt 0.746822 0.407476
vn 0.0000 1.0000 0.0000
vn -1.0000 0.0000 0.0000
vn 0.0000 0.0000 -1.0000
vn 1.0000 0.0000 0.0000
vn 0.0000 0.0000 1.0000
vn 0.7071 0.0000 -0.7071
vn 0.7071 0.0000 0.7071
vn -0.7071 0.0000 -0.7071
vn 0.0048 0.0000 -1.0000
vn 0.0016 0.0000 1.0000
vn -1.0000 0.0000 -0.0023
vn 0.0006 0.0000 -1.0000
vn 1.0000 0.0000 0.0002
vn -0.0012 0.0000 1.0000
vn 1.0000 0.0000 0.0015
vn -1.0000 0.0000 -0.0008
vn -0.0013 0.0000 1.0000
vn -0.7071 0.0000 0.7071
vn 0.0000 -1.0000 0.0000
vn 0.0000 -0.8338 0.5521
vn 0.0000 0.8338 0.5521
vn 0.5521 -0.8338 0.0000
vn 0.5521 0.8338 0.0000
vn 0.0000 -0.8338 -0.5521
vn 0.0000 0.8338 -0.5521
vn -0.5521 -0.8338 0.0000
vn -0.5521 0.8338 0.0000
vn -0.3615 0.8594 0.3615
vn -0.3615 -0.8594 0.3615
vn 0.3615 0.8594 0.3615
vn 0.3615 -0.8594 0.3615
vn 0.3615 0.8594 -0.3615
vn 0.3615 -0.8594 -0.3615
vn -0.3615 0.8594 -0.3615
vn -0.3615 -0.8594 -0.3615
vn -0.3748 -0.8480 0.3748
vn -0.3748 -0.8480 -0.3748
vn 0.3748 -0.8480 -0.3748
vn 0.3748 -0.8480 0.3748
vn -0.5300 -0.8480 0.0000
vn 0.0000 -0.8480 -0.5300
vn 0.5300 -0.8480 0.0000
vn 0.0000 -0.8480 0.5300
vn -0.3748 0.8480 0.3748
vn 0.3748 0.8480 0.3748
vn 0.3748 0.8480 -0.3748
vn 0.5300 0.8480 0.0000
vn -0.3748 0.8480 -0.3748
vn -0.5300 0.8480 0.0000
vn 0.0000 0.8480 0.5300
vn 0.0000 0.8480 -0.5300
s off
f 1/1/1 165/2/1 11/3/1
f 50/4/2 141/5/2 124/6/2
f 173/7/2 52/8/2 55/9/2
f 176/10/3 44/11/3 47/12/3
f 169/13/4 36/14/4 39/15/4
f 32/16/5 122/17/5 148/18/5
f 153/19/1 10/20/1 4/21/1
f 166/22/4 37/23/4 33/24/4
f 172/25/2 55/9/2 53/26/2
f 33/24/6 168/27/6 166/22/6
f 154/28/2 53/26/2 49/29/2
f 174/30/5 31/31/5 29/32/5
f 175/33/5 26/34/5 31/31/5
f 162/35/5 29/32/5 27/36/5
f 178/37/3 47/12/3 45/38/3
f 27/36/7 164/39/7 162/35/7
f 158/40/3 45/38/3 41/41/3
f 41/41/8 160/42/8 158/40/8
f 23/43/1 17/44/1 18/45/1
f 6/46/9 17/47/9 5/48/9
f 7/49/10 20/50/10 8/51/10
f 8/51/11 22/52/11 11/3/11
f 10/20/12 16/53/12 4/21/12
f 171/54/4 39/15/4 37/23/4
f 12/55/13 19/56/13 7/49/13
f 16/57/1 21/58/1 15/59/1
f 23/43/1 21/58/1 24/60/1
f 14/61/1 22/62/1 23/43/1
f 22/62/1 19/63/1 21/58/1
f 9/64/11 18/65/11 6/46/11
f 11/3/14 13/66/14 1/1/14
f 4/21/15 15/67/15 3/68/15
f 1/1/16 14/69/16 2/70/16
f 2/70/12 23/71/12 9/64/12
f 5/48/13 24/72/13 10/20/13
f 3/68/17 21/73/17 12/55/17
f 46/74/3 152/75/3 149/76/3
f 55/77/1 114/78/1 53/79/1
f 34/80/6 134/81/6 43/82/6
f 47/83/1 98/84/1 45/85/1
f 122/17/18 50/4/18 124/6/18
f 52/86/1 117/87/1 55/77/1
f 54/88/2 144/89/2 141/5/2
f 39/90/1 82/91/1 37/92/1
f 38/93/4 140/94/4 137/95/4
f 44/96/1 101/97/1 47/83/1
f 28/98/5 145/99/5 132/100/5
f 49/101/1 59/102/1 26/103/1
f 50/104/19 115/105/19 54/106/19
f 28/98/7 130/107/7 35/108/7
f 36/109/1 85/110/1 39/90/1
f 34/80/4 137/95/4 136/111/4
f 89/112/8 109/113/8 112/114/8
f 30/115/5 148/18/5 145/99/5
f 57/116/18 105/117/18 108/118/18
f 42/119/8 126/120/8 51/121/8
f 118/122/2 109/123/2 119/124/2
f 42/119/3 149/76/3 128/125/3
f 73/126/6 93/127/6 96/128/6
f 30/129/19 72/130/19 32/131/19
f 102/132/3 93/127/3 103/133/3
f 61/134/7 77/135/7 80/136/7
f 40/137/4 130/107/4 140/94/4
f 113/138/2 119/124/2 116/139/2
f 48/140/3 134/81/3 152/75/3
f 86/141/4 77/135/4 87/142/4
f 56/143/2 126/144/2 144/89/2
f 28/145/19 67/146/19 30/129/19
f 26/103/1 69/147/1 31/148/1
f 38/149/19 88/150/19 40/151/19
f 43/152/19 75/153/19 34/154/19
f 35/155/19 88/150/19 78/156/19
f 46/157/19 104/158/19 48/159/19
f 51/160/19 91/161/19 42/162/19
f 43/152/19 104/158/19 94/163/19
f 54/106/19 120/164/19 56/165/19
f 49/101/1 114/78/1 106/166/1
f 51/167/19 120/164/19 110/168/19
f 70/169/5 57/116/5 71/170/5
f 61/134/5 68/171/5 64/172/5
f 73/126/4 84/173/4 76/174/4
f 89/112/3 100/175/3 92/176/3
f 36/109/1 62/177/1 79/178/1
f 25/179/19 72/130/19 58/180/19
f 27/181/1 66/182/1 62/177/1
f 31/148/1 66/182/1 29/183/1
f 33/184/1 82/91/1 74/185/1
f 34/154/19 83/186/19 38/149/19
f 33/184/1 95/187/1 44/96/1
f 41/188/1 98/84/1 90/189/1
f 52/190/1 90/189/1 111/191/1
f 65/192/5 71/170/5 68/171/5
f 105/117/2 116/139/2 108/118/2
f 42/162/19 99/193/19 46/157/19
f 81/194/4 87/142/4 84/173/4
f 28/145/19 78/156/19 63/195/19
f 97/196/3 103/133/3 100/175/3
f 68/171/20 72/130/20 67/146/20
f 69/147/21 65/192/21 66/182/21
f 68/171/20 63/195/20 64/172/20
f 62/177/21 65/192/21 61/134/21
f 71/170/20 58/180/20 72/130/20
f 59/102/21 70/169/21 69/147/21
f 87/142/22 83/186/22 84/173/22
f 85/110/23 81/194/23 82/91/23
f 84/173/22 75/153/22 76/174/22
f 74/185/23 81/194/23 73/126/23
f 87/142/22 78/156/22 88/150/22
f 79/178/23 86/141/23 85/110/23
f 103/133/24 99/193/24 100/175/24
f 101/97/25 97/196/25 98/84/25
f 100/175/24 91/161/24 92/176/24
f 90/189/25 97/196/25 89/112/25
f 103/133/24 94/163/24 104/158/24
f 95/187/25 102/132/25 101/97/25
f 119/124/26 115/105/26 116/139/26
f 117/87/27 113/138/27 114/78/27
f 116/139/26 107/197/26 108/118/26
f 106/166/27 113/138/27 105/117/27
f 119/124/26 110/168/26 120/164/26
f 111/198/27 118/122/27 117/87/27
f 105/117/28 59/102/28 106/166/28
f 58/180/29 108/118/29 107/197/29
f 80/136/30 62/177/30 61/134/30
f 78/156/31 64/172/31 63/195/31
f 96/128/32 74/185/32 73/126/32
f 75/153/33 93/127/33 76/174/33
f 112/114/34 90/189/34 89/112/34
f 91/161/35 109/113/35 92/176/35
f 50/104/19 58/180/19 107/197/19
f 121/199/36 124/6/36 123/200/36
f 125/201/37 128/125/37 127/202/37
f 133/203/38 136/111/38 135/204/38
f 129/205/39 132/100/39 131/206/39
f 144/89/40 125/207/40 143/208/40
f 152/75/41 133/203/41 151/209/41
f 140/94/42 129/205/42 139/210/42
f 148/18/43 121/199/43 147/211/43
f 137/95/42 135/204/42 136/111/42
f 140/94/42 138/212/42 137/95/42
f 141/5/40 123/200/40 124/6/40
f 144/89/40 142/213/40 141/5/40
f 145/99/43 131/206/43 132/100/43
f 148/18/43 146/214/43 145/99/43
f 149/76/41 127/202/41 128/125/41
f 152/75/41 150/215/41 149/76/41
f 150/216/19 139/217/19 146/218/19
f 154/219/44 155/220/44 153/221/44
f 161/222/45 164/223/45 163/224/45
f 166/225/46 167/226/46 165/227/46
f 171/228/47 170/229/47 169/230/47
f 157/231/48 160/232/48 159/233/48
f 159/233/49 173/234/49 172/235/49
f 155/220/50 175/236/50 174/237/50
f 178/238/51 177/239/51 176/240/51
f 26/34/18 154/28/18 49/29/18
f 8/51/1 11/3/1 167/241/1
f 1/1/1 170/242/1 165/2/1
f 165/2/1 167/241/1 11/3/1
f 177/243/1 8/51/1 167/241/1
f 50/4/2 54/88/2 141/5/2
f 173/7/2 160/244/2 52/8/2
f 176/10/3 168/27/3 44/11/3
f 169/13/4 164/39/4 36/14/4
f 32/16/5 25/245/5 122/17/5
f 3/68/1 12/55/1 159/246/1
f 7/49/1 8/51/1 177/243/1
f 163/247/1 170/242/1 2/70/1
f 2/70/1 9/64/1 163/247/1
f 170/242/1 1/1/1 2/70/1
f 7/49/1 177/243/1 157/248/1
f 12/55/1 7/49/1 157/248/1
f 161/249/1 163/247/1 9/64/1
f 161/249/1 9/64/1 6/46/1
f 12/55/1 157/248/1 159/246/1
f 5/48/1 10/20/1 155/250/1
f 4/21/1 3/68/1 159/246/1
f 155/250/1 161/249/1 6/46/1
f 155/250/1 6/46/1 5/48/1
f 4/21/1 159/246/1 153/19/1
f 155/250/1 10/20/1 153/19/1
f 166/22/4 171/54/4 37/23/4
f 172/25/2 173/7/2 55/9/2
f 33/24/6 44/11/6 168/27/6
f 154/28/2 172/25/2 53/26/2
f 174/30/5 175/33/5 31/31/5
f 175/33/5 156/251/5 26/34/5
f 162/35/5 174/30/5 29/32/5
f 178/37/3 176/10/3 47/12/3
f 27/36/7 36/14/7 164/39/7
f 158/40/3 178/37/3 45/38/3
f 41/41/8 52/252/8 160/42/8
f 23/43/1 24/60/1 17/44/1
f 6/46/9 18/65/9 17/47/9
f 7/49/10 19/56/10 20/50/10
f 8/51/11 20/50/11 22/52/11
f 10/20/12 24/72/12 16/53/12
f 171/54/4 169/13/4 39/15/4
f 12/55/13 21/73/13 19/56/13
f 16/57/1 24/60/1 21/58/1
f 23/43/1 22/62/1 21/58/1
f 14/61/1 13/253/1 22/62/1
f 22/62/1 20/254/1 19/63/1
f 9/64/11 23/71/11 18/65/11
f 11/3/14 22/52/14 13/66/14
f 4/21/15 16/53/15 15/67/15
f 1/1/16 13/66/16 14/69/16
f 2/70/12 14/69/12 23/71/12
f 5/48/13 17/47/13 24/72/13
f 3/68/17 15/67/17 21/73/17
f 46/74/3 48/140/3 152/75/3
f 55/77/1 117/87/1 114/78/1
f 34/80/6 136/111/6 134/81/6
f 47/83/1 101/97/1 98/84/1
f 122/17/18 25/245/18 50/4/18
f 52/86/1 111/198/1 117/87/1
f 54/88/2 56/143/2 144/89/2
f 39/90/1 85/110/1 82/91/1
f 38/93/4 40/137/4 140/94/4
f 44/96/1 95/187/1 101/97/1
f 28/98/5 30/115/5 145/99/5
f 49/101/1 106/166/1 59/102/1
f 50/104/19 107/197/19 115/105/19
f 28/98/7 132/100/7 130/107/7
f 36/109/1 79/178/1 85/110/1
f 34/80/4 38/93/4 137/95/4
f 89/112/8 92/176/8 109/113/8
f 30/115/5 32/16/5 148/18/5
f 57/116/18 60/255/18 105/117/18
f 42/119/8 128/125/8 126/120/8
f 118/122/2 112/256/2 109/123/2
f 42/119/3 46/74/3 149/76/3
f 73/126/6 76/174/6 93/127/6
f 30/129/19 67/146/19 72/130/19
f 102/132/3 96/128/3 93/127/3
f 61/134/7 64/172/7 77/135/7
f 40/137/4 35/108/4 130/107/4
f 113/138/2 118/122/2 119/124/2
f 48/140/3 43/82/3 134/81/3
f 86/141/4 80/136/4 77/135/4
f 56/143/2 51/257/2 126/144/2
f 28/145/19 63/195/19 67/146/19
f 26/103/1 59/102/1 69/147/1
f 38/149/19 83/186/19 88/150/19
f 43/152/19 94/163/19 75/153/19
f 35/155/19 40/151/19 88/150/19
f 46/157/19 99/193/19 104/158/19
f 51/160/19 110/258/19 91/161/19
f 43/152/19 48/159/19 104/158/19
f 54/106/19 115/105/19 120/164/19
f 49/101/1 53/79/1 114/78/1
f 51/167/19 56/165/19 120/164/19
f 70/169/5 60/255/5 57/116/5
f 61/134/5 65/192/5 68/171/5
f 73/126/4 81/194/4 84/173/4
f 89/112/3 97/196/3 100/175/3
f 36/109/1 27/181/1 62/177/1
f 25/179/19 32/131/19 72/130/19
f 27/181/1 29/183/1 66/182/1
f 31/148/1 69/147/1 66/182/1
f 33/184/1 37/92/1 82/91/1
f 34/154/19 75/153/19 83/186/19
f 33/184/1 74/185/1 95/187/1
f 41/188/1 45/85/1 98/84/1
f 52/190/1 41/188/1 90/189/1
f 65/192/5 70/169/5 71/170/5
f 105/117/2 113/138/2 116/139/2
f 42/162/19 91/161/19 99/193/19
f 81/194/4 86/141/4 87/142/4
f 28/145/19 35/155/19 78/156/19
f 97/196/3 102/132/3 103/133/3
f 68/171/20 71/170/20 72/130/20
f 69/147/21 70/169/21 65/192/21
f 68/171/20 67/146/20 63/195/20
f 62/177/21 66/182/21 65/192/21
f 71/170/20 57/116/20 58/180/20
f 59/102/21 60/255/21 70/169/21
f 87/142/22 88/150/22 83/186/22
f 85/110/23 86/141/23 81/194/23
f 84/173/22 83/186/22 75/153/22
f 74/185/23 82/91/23 81/194/23
f 87/142/22 77/135/22 78/156/22
f 79/178/23 80/136/23 86/141/23
f 103/133/24 104/158/24 99/193/24
f 101/97/25 102/132/25 97/196/25
f 100/175/24 99/193/24 91/161/24
f 90/189/25 98/84/25 97/196/25
f 103/133/24 93/127/24 94/163/24
f 95/187/25 96/128/25 102/132/25
f 119/124/26 120/164/26 115/105/26
f 117/87/27 118/122/27 113/138/27
f 116/139/26 115/105/26 107/197/26
f 106/166/27 114/78/27 113/138/27
f 119/124/26 109/123/26 110/168/26
f 111/198/27 112/256/27 118/122/27
f 105/117/28 60/255/28 59/102/28
f 58/180/29 57/116/29 108/118/29
f 80/136/30 79/178/30 62/177/30
f 78/156/31 77/135/31 64/172/31
f 96/128/32 95/187/32 74/185/32
f 75/153/33 94/163/33 93/127/33
f 112/114/34 111/191/34 90/189/34
f 91/161/35 110/258/35 109/113/35
f 50/104/19 25/179/19 58/180/19
f 121/199/36 122/17/36 124/6/36
f 125/201/37 126/120/37 128/125/37
f 133/203/38 134/81/38 136/111/38
f 129/205/39 130/107/39 132/100/39
f 144/89/40 126/144/40 125/207/40
f 152/75/41 134/81/41 133/203/41
f 140/94/42 130/107/42 129/205/42
f 148/18/43 122/17/43 121/199/43
f 137/95/42 138/212/42 135/204/42
f 140/94/42 139/210/42 138/212/42
f 141/5/40 142/213/40 123/200/40
f 144/89/40 143/208/40 142/213/40
f 145/99/43 146/214/43 131/206/43
f 148/18/43 147/211/43 146/214/43
f 149/76/41 150/215/41 127/202/41
f 152/75/41 151/209/41 150/215/41
f 143/259/19 125/260/19 127/261/19
f 150/216/19 151/262/19 138/263/19
f 143/259/19 127/261/19 150/216/19
f 123/264/19 142/265/19 147/266/19
f 147/266/19 121/267/19 123/264/19
f 129/268/19 131/269/19 139/217/19
f 146/218/19 147/266/19 142/265/19
f 142/265/19 143/259/19 146/218/19
f 151/262/19 133/270/19 135/271/19
f 151/262/19 135/271/19 138/263/19
f 146/218/19 143/259/19 150/216/19
f 139/217/19 131/269/19 146/218/19
f 150/216/19 138/263/19 139/217/19
f 154/219/44 156/272/44 155/220/44
f 161/222/45 162/273/45 164/223/45
f 166/225/46 168/274/46 167/226/46
f 164/223/47 169/230/47 163/224/47
f 171/228/47 166/225/47 165/227/47
f 170/229/47 163/224/47 169/230/47
f 171/228/47 165/227/47 170/229/47
f 157/231/48 158/275/48 160/232/48
f 154/219/49 153/221/49 172/235/49
f 159/233/49 160/232/49 173/234/49
f 172/235/49 153/221/49 159/233/49
f 162/273/50 161/222/50 174/237/50
f 155/220/50 156/272/50 175/236/50
f 174/237/50 161/222/50 155/220/50
f 168/274/51 176/240/51 167/226/51
f 178/238/51 158/275/51 157/231/51
f 177/239/51 167/226/51 176/240/51
f 178/238/51 157/231/51 177/239/51
f 26/34/18 156/251/18 154/28/18
