# Blender v2.79 (sub 0) OBJ File: ''
# www.blender.org
v 0.100000 0.000000 0.000000
v 0.050000 0.000000 -0.050000
v 0.050000 0.000000 0.000000
v 0.000000 0.000000 -0.050000
v 0.000000 0.000000 0.000000
v 0.050000 -0.000000 0.050000
v 0.000000 -0.000000 0.050000
v 0.100000 -0.000000 0.050000
v 0.100000 0.000000 -0.050000
vt 0.500000 0.000000
vt 1.000000 0.500000
vt 0.500000 0.500000
vt 1.000000 1.000000
vt 0.500000 1.000000
vt 0.000000 0.500000
vt 0.000000 1.000000
vt 0.000000 0.000000
vt 1.000000 0.000000
vn 0.0000 1.0000 0.0000
s 1
f 1/1/1 2/2/1 3/3/1
f 3/3/1 4/4/1 5/5/1
f 6/6/1 5/5/1 7/7/1
f 8/8/1 3/3/1 6/6/1
f 1/1/1 9/9/1 2/2/1
f 3/3/1 2/2/1 4/4/1
f 6/6/1 3/3/1 5/5/1
f 8/8/1 1/1/1 3/3/1
