# Blender v2.79 (sub 0) OBJ File: 'new drops.blend'
# www.blender.org
v -0.320000 0.000000 0.130586
v -0.214084 0.041547 -0.475037
v -0.214084 0.212801 -0.475037
v 0.320000 0.000000 0.130586
v 0.214052 0.041547 -0.475037
v 0.214052 0.212801 -0.475037
v 0.128425 0.041547 -0.475037
v 0.042798 0.075031 -0.341245
v -0.042830 0.075031 -0.341245
v -0.128457 0.041547 -0.475037
v -0.128457 0.212801 -0.475037
v -0.042830 0.165964 -0.341245
v 0.042798 0.165964 -0.341245
v 0.128425 0.212801 -0.475037
v -0.126636 0.000000 0.130586
v -0.064000 0.050054 0.054191
v 0.064000 0.050054 0.054191
v 0.122021 0.000000 0.130586
v 0.122021 0.256000 0.130586
v 0.064000 0.185986 0.054191
v -0.064000 0.185986 0.054191
v -0.126636 0.256000 0.130586
v -0.280980 0.127174 -0.475037
v 0.280948 0.127174 -0.475037
v 0.068385 0.128000 0.130586
v 0.064000 0.128000 0.054191
v -0.064000 0.128000 0.054191
v -0.062504 0.128000 0.130586
v -0.080988 0.127174 -0.475037
v -0.042830 0.127174 -0.341245
v 0.042798 0.127174 -0.341245
v 0.072819 0.127174 -0.475037
v -0.214084 0.041547 -0.402919
v 0.214052 0.041547 -0.402919
v 0.120539 0.212801 -0.402919
v 0.042798 0.165964 -0.300272
v -0.042830 0.165964 -0.300272
v -0.121091 0.212801 -0.402919
v -0.121091 0.041547 -0.402919
v -0.042830 0.075031 -0.300272
v 0.042798 0.075031 -0.300272
v 0.120539 0.041547 -0.402919
v -0.362789 0.128000 0.130586
v -0.292789 0.217600 0.130586
v -0.157434 0.217600 0.130586
v -0.292789 0.038400 0.130586
v -0.157434 0.038400 0.130586
v -0.112541 0.128000 0.130586
v 0.362621 0.128000 0.130586
v 0.292621 0.038400 0.130586
v 0.154036 0.038400 0.130586
v 0.292621 0.217600 0.130586
v 0.154036 0.217600 0.130586
v 0.116491 0.128000 0.130586
v -0.362789 0.128000 0.230586
v -0.292789 0.217600 0.230586
v -0.157434 0.217600 0.230586
v -0.292789 0.038400 0.230586
v -0.157434 0.038400 0.230586
v -0.112541 0.128000 0.230586
v 0.362621 0.128000 0.230586
v 0.292621 0.038400 0.230586
v 0.154036 0.038400 0.230586
v 0.292621 0.217600 0.230586
v 0.154036 0.217600 0.230586
v 0.116491 0.128000 0.230586
v -0.322741 0.128000 0.230586
v -0.273741 0.190720 0.230586
v -0.178992 0.190720 0.230586
v -0.273741 0.065280 0.230586
v -0.178992 0.065280 0.230586
v -0.147568 0.128000 0.230586
v 0.322456 0.128000 0.230586
v 0.273456 0.065280 0.230586
v 0.176446 0.065280 0.230586
v 0.273456 0.190720 0.230586
v 0.176446 0.190720 0.230586
v 0.150165 0.128000 0.230586
v -0.322741 0.128000 0.195716
v -0.273741 0.190720 0.195716
v -0.178992 0.190720 0.195716
v -0.273741 0.065280 0.195716
v -0.178992 0.065280 0.195716
v -0.147568 0.128000 0.195716
v 0.322456 0.128000 0.195716
v 0.273456 0.065280 0.195716
v 0.176446 0.065280 0.195716
v 0.273456 0.190720 0.195716
v 0.176446 0.190720 0.195716
v 0.150165 0.128000 0.195716
v -0.249039 0.127174 -0.445949
v -0.202211 0.067235 -0.445949
v -0.142272 0.067235 -0.445949
v 0.141833 0.187113 -0.445949
v 0.201772 0.187113 -0.445949
v 0.248600 0.127174 -0.445949
v 0.201772 0.067235 -0.445949
v 0.141833 0.067235 -0.445949
v -0.202211 0.187113 -0.445949
v -0.142272 0.187113 -0.445949
v -0.109044 0.127174 -0.445949
v 0.102909 0.127174 -0.445949
v -0.389454 0.167099 0.130586
v -0.389438 0.088880 0.130586
v -0.362805 0.128000 0.130586
v -0.402102 0.127994 0.130586
v 0.389437 0.088880 0.130586
v 0.389454 0.167099 0.130586
v 0.362637 0.128000 0.130586
v 0.402102 0.127994 0.130586
v 0.250402 0.166273 -0.402919
v 0.250386 0.088054 -0.402919
v 0.280948 0.127174 -0.475021
v 0.263050 0.127168 -0.402919
v -0.250418 0.088054 -0.402919
v -0.250434 0.166273 -0.402919
v -0.280980 0.127174 -0.475021
v -0.263082 0.127168 -0.402919
v -0.266706 0.256000 0.130586
v -0.335735 0.235859 0.130586
v -0.305734 0.235868 0.130586
v -0.308999 0.250101 0.130586
v 0.335735 0.235859 0.130586
v 0.266705 0.256000 0.130586
v 0.305653 0.235877 0.130586
v 0.308999 0.250101 0.130586
v -0.229819 0.192660 -0.402919
v -0.160790 0.212801 -0.402919
v -0.214084 0.212801 -0.455232
v -0.203083 0.206902 -0.402919
v 0.160757 0.212801 -0.402919
v 0.229787 0.192661 -0.402919
v 0.214052 0.212801 -0.455232
v 0.203051 0.206902 -0.402919
v -0.300153 0.007529 -0.136980
v 0.136319 0.247645 -0.136980
v 0.060021 0.181975 -0.122227
v -0.060037 0.181975 -0.122227
v -0.139221 0.247645 -0.136980
v -0.139221 0.007529 -0.136980
v -0.060037 0.054477 -0.122227
v 0.060021 0.054477 -0.122227
v 0.136319 0.007529 -0.136980
v 0.300137 0.007529 -0.136980
v 0.359599 0.171534 -0.136980
v 0.373815 0.127580 -0.136980
v 0.359581 0.083616 -0.136980
v -0.359615 0.171534 -0.136980
v -0.373831 0.127580 -0.136980
v -0.359597 0.083616 -0.136980
v 0.240234 0.247645 -0.136980
v 0.287772 0.241015 -0.136980
v 0.317823 0.225007 -0.136980
v -0.240251 0.247645 -0.136980
v -0.287788 0.241015 -0.136980
v -0.317839 0.225007 -0.136980
vt 0.337200 0.707560
vt 0.318738 0.716547
vt 0.330994 0.704702
vt 0.539975 0.816400
vt 0.533437 0.771824
vt 0.543439 0.756061
vt 0.322139 0.782547
vt 0.285042 0.831719
vt 0.294402 0.779526
vt 0.210283 0.610578
vt 0.234022 0.644176
vt 0.226981 0.648908
vt 0.469862 0.981973
vt 0.454130 0.959518
vt 0.478959 0.965971
vt 0.352980 0.639951
vt 0.341449 0.576381
vt 0.378878 0.605398
vt 0.321398 0.615609
vt 0.307000 0.560159
vt 0.256051 0.601354
vt 0.295907 0.603851
vt 0.182956 0.729486
vt 0.176540 0.790436
vt 0.145074 0.763994
vt 0.205239 0.745569
vt 0.210042 0.808112
vt 0.261033 0.776592
vt 0.232824 0.765008
vt 0.249369 0.824046
vt 0.449234 0.915371
vt 0.475177 0.879326
vt 0.457853 0.917633
vt 0.352448 0.539184
vt 0.342032 0.540464
vt 0.326948 0.535698
vt 0.320828 0.528728
vt 0.250714 0.674388
vt 0.235128 0.685052
vt 0.245024 0.672323
vt 0.250754 0.674268
vt 0.279764 0.654801
vt 0.270367 0.680076
vt 0.289276 0.687570
vt 0.299733 0.662974
vt 0.309455 0.697443
vt 0.277830 0.721287
vt 0.309518 0.720797
vt 0.270246 0.680414
vt 0.257241 0.713460
vt 0.234075 0.692084
vt 0.241144 0.650646
vt 0.244517 0.657804
vt 0.239792 0.655660
vt 0.197608 0.859041
vt 0.222737 0.862110
vt 0.229882 0.868551
vt 0.364907 0.649880
vt 0.396787 0.622773
vt 0.167661 0.699579
vt 0.220838 0.694977
vt 0.240695 0.648808
vt 0.246218 0.642567
vt 0.247548 0.651947
vt 0.313516 0.714904
vt 0.325773 0.683161
vt 0.333026 0.676988
vt 0.333052 0.685297
vt 0.511220 0.913058
vt 0.501751 0.929152
vt 0.499963 0.885902
vt 0.212942 0.677996
vt 0.222755 0.663199
vt 0.226769 0.688275
vt 0.303761 0.727333
vt 0.272697 0.729138
vt 0.255606 0.721905
vt 0.233938 0.700703
vt 0.252233 0.644665
vt 0.284814 0.647543
vt 0.301346 0.654838
vt 0.327081 0.674504
vt 0.331511 0.686380
vt 0.343240 0.694289
vt 0.317320 0.731873
vt 0.334488 0.724786
vt 0.317473 0.722958
vt 0.486078 0.783643
vt 0.509198 0.765518
vt 0.486384 0.802305
vt 0.509564 0.587262
vt 0.468962 0.583645
vt 0.476889 0.569259
vt 0.385603 0.859073
vt 0.405633 0.867411
vt 0.396546 0.877751
vt 0.240782 0.600662
vt 0.259869 0.558042
vt 0.476929 0.818391
vt 0.488135 0.845572
vt 0.508776 0.747059
vt 0.512353 0.852001
vt 0.531010 0.814042
vt 0.398198 0.775570
vt 0.405232 0.822003
vt 0.386883 0.819138
vt 0.488168 0.713639
vt 0.491002 0.680849
vt 0.508140 0.689534
vt 0.509433 0.870042
vt 0.473996 0.860626
vt 0.443912 0.975233
vt 0.502108 0.947816
vt 0.353296 0.770827
vt 0.326959 0.833221
vt 0.400422 0.855011
vt 0.415677 0.864816
vt 0.501128 0.643251
vt 0.485096 0.671442
vt 0.496035 0.642107
vt 0.421270 0.793702
vt 0.410325 0.823144
vt 0.498708 0.614939
vt 0.505906 0.610357
vt 0.437179 0.882064
vt 0.429061 0.896297
vt 0.519415 0.646118
vt 0.520733 0.606310
vt 0.417757 0.751974
vt 0.415348 0.784259
vt 0.500617 0.597689
vt 0.478996 0.739324
vt 0.429179 0.771320
vt 0.426588 0.725529
vt 0.476858 0.694113
vt 0.490760 0.640814
vt 0.415616 0.824439
vt 0.493172 0.616136
vt 0.413200 0.849190
vt 0.407643 0.850400
vt 0.490535 0.600200
vt 0.438401 0.877644
vt 0.422894 0.694078
vt 0.465169 0.684617
vt 0.440726 0.780842
vt 0.483108 0.770346
vt 0.467732 0.587847
vt 0.394801 0.917549
vt 0.364922 0.939754
vt 0.363440 0.909404
vt 0.379503 0.883610
vt 0.396466 0.888016
vt 0.409756 0.951398
vt 0.394974 0.917593
vt 0.425819 0.925604
vt 0.424337 0.895254
vt 0.406970 0.890743
vt 0.419616 0.861129
vt 0.486624 0.603927
vt 0.440625 0.873770
vt 0.423884 0.687116
vt 0.462757 0.676334
vt 0.426470 0.798450
vt 0.479916 0.666719
vt 0.481977 0.777577
vt 0.443211 0.789050
vt 0.465588 0.591733
vt 0.554716 0.618108
vt 0.530050 0.640338
vt 0.528633 0.611334
vt 0.524366 0.696320
vt 0.514654 0.665161
vt 0.539717 0.671670
vt 0.538301 0.642666
vt 0.527570 0.639879
vt 0.543984 0.586684
vt 0.554715 0.589471
vt 0.230191 0.682684
vt 0.324225 0.689609
vt 0.314200 0.699488
vt 0.229320 0.665026
vt 0.329249 0.691049
vt 0.479097 0.800384
vt 0.486059 0.802219
vt 0.509071 0.931069
vt 0.502077 0.929238
vt 0.346589 0.705817
vt 0.337463 0.707637
vt 0.345911 0.715998
vt 0.210403 0.663563
vt 0.222502 0.663078
vt 0.216655 0.655503
vt 0.418320 0.660099
vt 0.385511 0.689832
vt 0.380780 0.677194
vt 0.367525 0.762873
vt 0.372103 0.816868
vt 0.198141 0.616987
vt 0.162443 0.683923
vt 0.373233 0.659533
vt 0.488224 0.863987
vt 0.481359 0.859329
vt 0.483642 0.853119
vt 0.478276 0.851681
vt 0.484572 0.976145
vt 0.478130 0.981290
vt 0.479178 0.974760
vt 0.240008 0.642963
vt 0.337401 0.681379
vt 0.341056 0.686201
vt 0.369452 0.654435
vt 0.405409 0.632864
vt 0.234297 0.601025
vt 0.228007 0.602320
vt 0.221991 0.560463
vt 0.228587 0.559087
vt 0.235346 0.558757
vt 0.122380 0.721163
vt 0.114483 0.704282
vt 0.193586 0.572248
vt 0.179628 0.578471
vt 0.289122 0.687916
vt 0.208434 0.858271
vt 0.513310 0.870652
vt 0.381885 0.944159
vt 0.392388 0.946887
vt 0.423412 0.678486
vt 0.482605 0.786167
vt 0.540781 0.643125
vt 0.513635 0.693533
vt 0.229356 0.665195
vt 0.245071 0.672209
vt 0.331128 0.704598
vt 0.424433 0.673848
vt 0.389138 0.809748
vt 0.401504 0.627491
vn -0.5927 0.4630 -0.6591
vn -0.0000 0.0000 1.0000
vn 0.0000 -0.9996 -0.0281
vn -0.7471 0.5836 -0.3182
vn -0.7352 0.6751 -0.0604
vn 0.0000 0.9997 -0.0227
vn 0.6387 0.7694 -0.0031
vn 0.5853 -0.8092 -0.0503
vn 0.0000 -0.9997 -0.0251
vn -0.5254 -0.8508 -0.0095
vn -0.9984 0.0000 0.0573
vn 0.9998 0.0000 -0.0196
vn -0.6685 0.3706 -0.6448
vn 0.9617 0.0000 -0.2743
vn 0.0000 0.0000 -1.0000
vn -0.9757 0.0000 -0.2189
vn -0.7786 -0.5056 -0.3717
vn 0.8010 -0.4440 -0.4015
vn 0.0000 -0.7496 -0.6619
vn 0.8185 -0.4101 0.4024
vn -0.8419 -0.3528 0.4083
vn 0.0000 0.9995 -0.0312
vn -0.7475 -0.5840 -0.3166
vn 0.0000 1.0000 -0.0000
vn 0.6335 0.4114 -0.6553
vn -0.7880 -0.6156 0.0000
vn -0.3956 -0.9184 0.0000
vn 0.0000 -1.0000 0.0000
vn 0.4215 -0.9058 -0.0430
vn 0.5135 0.8581 0.0000
vn -0.5497 0.8332 -0.0601
vn 0.7880 0.6156 0.0000
vn -0.7880 0.6156 0.0000
vn 0.7880 -0.6156 0.0000
vn -0.9223 -0.3865 0.0000
vn 0.7858 -0.6139 -0.0756
vn 0.8941 0.4480 0.0000
vn 0.8941 -0.4480 0.0000
vn -0.9223 0.3865 0.0000
vn -0.8941 -0.4480 0.0000
vn 0.9223 -0.3865 0.0000
vn -0.8941 0.4480 0.0000
vn 0.9223 0.3865 0.0000
vn 0.5959 0.4655 -0.6543
vn 0.6335 -0.4114 -0.6553
vn 0.0000 0.7496 -0.6619
vn 0.5959 -0.4655 -0.6543
vn -0.6685 -0.3706 -0.6448
vn -0.5927 -0.4630 -0.6591
vn 0.9260 0.2995 0.2299
vn 0.9259 -0.2998 0.2298
vn -0.9259 -0.2998 0.2298
vn -0.9260 0.2995 0.2299
vn 0.9467 0.3062 -0.1006
vn 0.9466 -0.3065 -0.0996
vn -0.8844 0.2860 -0.3688
vn -0.8846 -0.2864 -0.3680
vn 0.7857 0.6138 -0.0775
vn -0.4612 0.8657 0.1946
vn -0.1368 0.9807 0.1394
vn 0.1368 0.9807 0.1394
vn 0.4611 0.8657 0.1946
vn 0.1380 0.9894 -0.0445
vn 0.4691 0.8806 -0.0671
vn -0.1362 0.9762 -0.1686
vn -0.4547 0.8536 -0.2543
vn -0.4691 0.8806 -0.0671
vn -0.1380 0.9894 -0.0445
vn 0.4547 0.8536 -0.2543
vn 0.1362 0.9762 -0.1686
vn 0.7470 0.5836 -0.3183
vn -0.9466 -0.3065 -0.0995
vn -0.9467 0.3062 -0.1005
vn 0.8846 -0.2864 -0.3680
vn 0.8844 0.2860 -0.3688
vn 0.7475 -0.5840 -0.3167
vn 0.0000 0.9915 -0.1299
vn -0.7858 -0.6139 -0.0756
vn -0.5300 -0.8467 -0.0465
vn 0.0000 -0.9934 -0.1147
vn 0.4782 -0.8747 -0.0793
vn 0.0000 -0.9919 -0.1269
vn 0.6392 0.7690 -0.0074
vn 0.0000 0.9960 -0.0896
vn -0.5823 0.8098 -0.0715
vn -0.7857 0.6138 -0.0774
vn -0.6526 0.7577 -0.0025
vn 0.7134 0.6986 -0.0554
vn 0.5114 -0.8593 -0.0101
vn -0.6099 -0.7906 -0.0548
vn -0.8715 0.3652 0.3272
vn 0.8509 0.4263 0.3069
vn 0.8148 0.4517 -0.3634
vn -0.7926 0.5147 -0.3271
vn -0.7893 -0.6140 0.0000
vn -0.4261 -0.9035 -0.0466
vn 0.3934 -0.9194 0.0000
vn 0.5446 0.8368 -0.0556
vn -0.5161 0.8566 0.0000
vn 0.7886 0.6149 0.0000
vn -0.7863 0.6178 0.0000
vn 0.7891 -0.6143 0.0000
vn -0.4843 -0.8710 -0.0827
vn 0.5161 -0.8551 -0.0488
vn 0.5760 0.8146 -0.0675
vn -0.6529 0.7574 -0.0050
s off
f 24/1/1 97/2/1 96/3/1
f 28/4/2 47/5/2 15/6/2
f 144/7/3 18/8/3 143/9/3
f 148/10/4 127/11/4 116/12/4
f 124/13/2 53/14/2 52/15/2
f 136/16/5 20/17/5 19/18/5
f 137/19/6 21/20/6 20/17/6
f 139/21/7 21/20/7 138/22/7
f 135/23/3 15/24/3 1/25/3
f 140/26/8 16/27/8 15/24/8
f 142/28/9 16/27/9 141/29/9
f 143/9/10 17/30/10 142/28/10
f 25/31/2 51/32/2 54/33/2
f 25/34/11 20/17/11 26/35/11
f 20/17/2 27/36/2 26/35/2
f 21/20/12 28/37/12 27/36/12
f 29/38/13 93/39/13 101/40/13
f 29/41/14 12/42/14 30/43/14
f 12/42/15 31/44/15 30/43/15
f 13/45/16 32/46/16 31/44/16
f 8/47/17 32/46/17 7/48/17
f 30/49/15 8/47/15 9/50/15
f 29/38/18 9/50/18 10/51/18
f 3/52/19 100/53/19 99/54/19
f 16/27/20 28/55/20 15/24/20
f 26/56/2 16/27/2 17/30/2
f 25/57/21 17/30/21 18/8/21
f 151/58/22 19/18/22 124/59/22
f 150/60/23 33/61/23 135/23/23
f 129/62/24 128/63/24 11/64/24
f 32/46/25 98/65/25 7/48/25
f 14/66/24 131/67/24 133/68/24
f 107/69/2 49/70/2 50/71/2
f 115/72/26 23/73/26 2/74/26
f 8/47/27 42/75/27 41/76/27
f 8/47/28 40/77/28 9/50/28
f 9/50/29 39/78/29 10/51/29
f 10/51/28 33/61/28 2/74/28
f 12/42/30 38/79/30 37/80/30
f 12/42/24 36/81/24 13/45/24
f 13/45/31 35/82/31 14/66/31
f 6/83/32 111/84/32 24/1/32
f 116/12/33 3/52/33 23/73/33
f 7/48/28 34/85/28 42/75/28
f 24/1/34 112/86/34 5/87/34
f 104/88/2 46/89/2 43/90/2
f 51/91/35 66/92/35 54/93/35
f 44/94/24 57/95/24 45/96/24
f 154/97/22 22/98/22 139/21/22
f 103/99/2 43/90/2 44/100/2
f 1/101/2 47/5/2 46/89/2
f 28/4/2 45/102/2 48/103/2
f 46/104/26 55/105/26 43/106/26
f 53/107/24 64/108/24 52/109/24
f 4/110/2 51/32/2 18/111/2
f 25/31/2 53/14/2 19/112/2
f 108/113/2 52/15/2 49/70/2
f 147/114/36 4/115/36 144/7/36
f 56/116/2 69/117/2 57/95/2
f 61/118/2 76/119/2 73/120/2
f 55/105/2 70/121/2 67/122/2
f 61/118/2 74/123/2 62/124/2
f 45/96/37 60/125/37 48/126/37
f 49/127/34 62/124/34 50/128/34
f 47/129/28 58/130/28 46/104/28
f 52/109/32 61/118/32 49/127/32
f 50/128/28 63/131/28 51/91/28
f 48/132/38 59/133/38 47/129/38
f 54/134/39 65/135/39 53/107/39
f 43/106/33 56/116/33 44/94/33
f 76/119/26 85/136/26 73/120/26
f 70/121/32 79/137/32 67/122/32
f 73/120/33 86/138/33 74/123/33
f 67/122/34 80/139/34 68/140/34
f 62/124/2 75/141/2 63/131/2
f 60/125/2 69/117/2 72/142/2
f 66/143/2 77/144/2 65/135/2
f 58/130/2 71/145/2 70/121/2
f 64/108/2 77/144/2 76/119/2
f 60/146/2 71/145/2 59/133/2
f 66/92/2 75/141/2 78/147/2
f 55/105/2 68/140/2 56/116/2
f 84/148/2 80/149/2 79/150/2
f 84/148/2 82/151/2 83/152/2
f 88/153/2 90/154/2 85/155/2
f 86/156/2 90/154/2 87/157/2
f 68/140/28 81/158/28 69/117/28
f 74/123/24 87/159/24 75/141/24
f 69/117/40 84/160/40 72/142/40
f 78/161/41 89/162/41 77/144/41
f 71/145/24 82/163/24 70/121/24
f 77/144/28 88/164/28 76/119/28
f 72/165/42 83/166/42 71/145/42
f 75/141/43 90/167/43 78/147/43
f 102/168/15 95/169/15 96/170/15
f 99/171/15 101/172/15 91/173/15
f 92/174/15 101/172/15 93/175/15
f 102/168/15 97/176/15 98/177/15
f 23/73/44 92/178/44 2/74/44
f 32/46/45 94/179/45 102/180/45
f 2/74/46 93/39/46 10/51/46
f 23/73/47 99/54/47 91/181/47
f 29/41/48 100/53/48 11/64/48
f 6/83/19 94/179/19 14/66/19
f 24/1/49 95/182/49 6/83/49
f 5/87/46 98/65/46 97/2/46
f 103/99/2 106/183/2 105/184/2
f 106/183/2 104/88/2 105/184/2
f 107/69/2 110/185/2 109/186/2
f 110/185/2 108/113/2 109/186/2
f 111/84/50 114/187/50 113/188/50
f 114/189/51 112/86/51 113/188/51
f 115/72/52 118/190/52 117/191/52
f 118/192/53 116/12/53 117/191/53
f 108/193/54 146/194/54 145/195/54
f 146/196/55 107/197/55 147/114/55
f 148/10/56 118/192/56 149/198/56
f 118/190/57 150/60/57 149/199/57
f 153/200/58 108/193/58 145/195/58
f 119/201/2 122/202/2 121/203/2
f 122/202/2 120/204/2 121/203/2
f 123/205/2 126/206/2 125/207/2
f 126/206/2 124/13/2 125/207/2
f 127/11/59 130/208/59 129/62/59
f 130/208/60 128/63/60 129/62/60
f 131/67/61 134/209/61 133/68/61
f 134/209/62 132/210/62 133/68/62
f 124/59/63 152/211/63 151/58/63
f 152/211/64 123/212/64 153/200/64
f 154/97/65 130/208/65 155/213/65
f 130/208/66 156/214/66 155/213/66
f 119/201/2 44/100/2 45/102/2
f 155/213/67 120/215/67 122/216/67
f 119/217/68 155/213/68 122/216/68
f 134/209/69 153/200/69 132/210/69
f 151/58/70 134/209/70 131/67/70
f 132/210/71 145/195/71 111/84/71
f 149/199/72 104/218/72 106/219/72
f 103/220/73 149/198/73 106/221/73
f 114/189/74 147/114/74 112/86/74
f 145/195/75 114/187/75 111/84/75
f 34/85/76 147/114/76 144/7/76
f 128/63/77 139/21/77 38/79/77
f 1/25/78 150/60/78 135/23/78
f 131/67/77 136/16/77 151/58/77
f 41/76/79 143/9/79 142/28/79
f 41/76/80 141/29/80 40/77/80
f 40/77/81 140/26/81 39/78/81
f 33/61/82 140/26/82 135/23/82
f 37/80/83 139/21/83 138/22/83
f 36/81/84 138/22/84 137/19/84
f 36/81/85 136/16/85 35/82/85
f 103/220/86 156/214/86 148/10/86
f 34/85/82 143/9/82 42/75/82
f 24/1/1 5/87/1 97/2/1
f 28/4/2 48/103/2 47/5/2
f 144/7/3 4/115/3 18/8/3
f 148/10/4 156/214/4 127/11/4
f 52/15/2 125/207/2 124/13/2
f 124/13/2 19/112/2 53/14/2
f 136/16/87 137/19/87 20/17/87
f 137/19/6 138/22/6 21/20/6
f 139/21/88 22/98/88 21/20/88
f 135/23/3 140/26/3 15/24/3
f 140/26/89 141/29/89 16/27/89
f 142/28/9 17/30/9 16/27/9
f 143/9/90 18/8/90 17/30/90
f 25/31/2 18/111/2 51/32/2
f 25/34/91 19/18/91 20/17/91
f 20/17/2 21/20/2 27/36/2
f 21/20/92 22/98/92 28/37/92
f 29/38/13 10/51/13 93/39/13
f 29/41/93 11/64/93 12/42/93
f 12/42/15 13/45/15 31/44/15
f 13/45/94 14/66/94 32/46/94
f 8/47/16 31/222/16 32/46/16
f 30/49/15 31/222/15 8/47/15
f 29/38/14 30/49/14 9/50/14
f 3/52/19 11/64/19 100/53/19
f 16/27/12 27/223/12 28/55/12
f 26/56/2 27/223/2 16/27/2
f 25/57/11 26/56/11 17/30/11
f 151/58/22 136/16/22 19/18/22
f 150/60/23 115/72/23 33/61/23
f 38/79/24 11/64/24 128/63/24
f 3/52/24 129/62/24 11/64/24
f 32/46/25 102/180/25 98/65/25
f 133/68/24 6/83/24 14/66/24
f 14/66/24 35/82/24 131/67/24
f 50/71/2 4/110/2 107/69/2
f 107/69/2 109/186/2 49/70/2
f 2/74/26 33/61/26 115/72/26
f 115/72/95 117/191/95 23/73/95
f 8/47/96 7/48/96 42/75/96
f 8/47/28 41/76/28 40/77/28
f 9/50/97 40/77/97 39/78/97
f 10/51/28 39/78/28 33/61/28
f 12/42/98 11/64/98 38/79/98
f 12/42/24 37/80/24 36/81/24
f 13/45/99 36/81/99 35/82/99
f 113/188/100 24/1/100 111/84/100
f 6/83/32 133/68/32 132/210/32
f 132/210/32 111/84/32 6/83/32
f 23/73/101 117/191/101 116/12/101
f 116/12/33 127/11/33 3/52/33
f 129/62/33 3/52/33 127/11/33
f 7/48/28 5/87/28 34/85/28
f 34/85/34 5/87/34 112/86/34
f 24/1/102 113/188/102 112/86/102
f 43/90/2 105/184/2 104/88/2
f 104/88/2 1/101/2 46/89/2
f 51/91/35 63/131/35 66/92/35
f 44/94/24 56/116/24 57/95/24
f 154/97/22 119/217/22 22/98/22
f 44/100/2 121/203/2 120/204/2
f 120/204/2 103/99/2 44/100/2
f 105/184/2 43/90/2 103/99/2
f 1/101/2 15/6/2 47/5/2
f 28/4/2 22/224/2 45/102/2
f 46/104/26 58/130/26 55/105/26
f 53/107/24 65/135/24 64/108/24
f 4/110/2 50/71/2 51/32/2
f 25/31/2 54/33/2 53/14/2
f 49/70/2 109/186/2 108/113/2
f 108/113/2 123/205/2 52/15/2
f 125/207/2 52/15/2 123/205/2
f 147/114/36 107/197/36 4/115/36
f 56/116/2 68/140/2 69/117/2
f 61/118/2 64/108/2 76/119/2
f 55/105/2 58/130/2 70/121/2
f 61/118/2 73/120/2 74/123/2
f 45/96/37 57/95/37 60/125/37
f 49/127/34 61/118/34 62/124/34
f 47/129/28 59/133/28 58/130/28
f 52/109/32 64/108/32 61/118/32
f 50/128/28 62/124/28 63/131/28
f 48/132/38 60/146/38 59/133/38
f 54/134/39 66/143/39 65/135/39
f 43/106/33 55/105/33 56/116/33
f 76/119/26 88/164/26 85/136/26
f 70/121/32 82/163/32 79/137/32
f 73/120/33 85/136/33 86/138/33
f 67/122/34 79/137/34 80/139/34
f 62/124/2 74/123/2 75/141/2
f 60/125/2 57/95/2 69/117/2
f 66/143/2 78/161/2 77/144/2
f 58/130/2 59/133/2 71/145/2
f 64/108/2 65/135/2 77/144/2
f 60/146/2 72/165/2 71/145/2
f 66/92/2 63/131/2 75/141/2
f 55/105/2 67/122/2 68/140/2
f 84/148/2 81/225/2 80/149/2
f 84/148/2 79/150/2 82/151/2
f 88/153/2 89/226/2 90/154/2
f 86/156/2 85/155/2 90/154/2
f 68/140/28 80/139/28 81/158/28
f 74/123/24 86/138/24 87/159/24
f 69/117/40 81/158/40 84/160/40
f 78/161/41 90/227/41 89/162/41
f 71/145/24 83/166/24 82/163/24
f 77/144/28 89/162/28 88/164/28
f 72/165/42 84/228/42 83/166/42
f 75/141/43 87/159/43 90/167/43
f 102/168/15 94/229/15 95/169/15
f 99/171/15 100/230/15 101/172/15
f 92/174/15 91/173/15 101/172/15
f 102/168/15 96/170/15 97/176/15
f 23/73/44 91/231/44 92/178/44
f 32/46/45 14/66/45 94/179/45
f 2/74/46 92/178/46 93/39/46
f 23/73/47 3/52/47 99/54/47
f 29/41/48 101/232/48 100/53/48
f 6/83/19 95/182/19 94/179/19
f 24/1/49 96/233/49 95/182/49
f 5/87/46 7/48/46 98/65/46
f 108/193/54 110/234/54 146/194/54
f 146/196/55 110/235/55 107/197/55
f 148/10/56 116/12/56 118/192/56
f 118/190/57 115/72/57 150/60/57
f 153/200/58 123/212/58 108/193/58
f 124/59/63 126/236/63 152/211/63
f 152/211/64 126/236/64 123/212/64
f 154/97/65 128/63/65 130/208/65
f 130/208/66 127/11/66 156/214/66
f 45/102/2 22/224/2 119/201/2
f 119/201/2 121/203/2 44/100/2
f 155/213/67 156/214/67 120/215/67
f 119/217/68 154/97/68 155/213/68
f 134/209/69 152/211/69 153/200/69
f 151/58/70 152/211/70 134/209/70
f 132/210/71 153/200/71 145/195/71
f 149/199/72 150/60/72 104/218/72
f 103/220/73 148/10/73 149/198/73
f 114/189/74 146/196/74 147/114/74
f 145/195/75 146/194/75 114/187/75
f 34/85/76 112/86/76 147/114/76
f 128/63/77 154/97/77 139/21/77
f 1/25/78 104/218/78 150/60/78
f 131/67/77 35/82/77 136/16/77
f 41/76/103 42/75/103 143/9/103
f 41/76/80 142/28/80 141/29/80
f 40/77/104 141/29/104 140/26/104
f 33/61/82 39/78/82 140/26/82
f 37/80/105 38/79/105 139/21/105
f 36/81/84 37/80/84 138/22/84
f 36/81/106 137/19/106 136/16/106
f 103/220/86 120/215/86 156/214/86
f 34/85/82 144/7/82 143/9/82
