# Blender v2.79 (sub 0) OBJ File: 'Play Button.blend'
# www.blender.org
v -0.880578 0.000000 -0.191233
v -0.711732 0.000000 -0.192156
v -1.062884 0.000000 -0.336926
v -1.062884 0.000000 0.354126
v -0.876920 0.000000 0.354126
v -0.876920 0.000000 0.051073
v -0.596826 0.000000 0.051073
v -0.562388 0.000000 0.037298
v -0.541726 0.000000 0.014340
v -0.527951 0.000000 -0.010915
v -0.516471 0.000000 -0.031577
v -0.516471 0.000000 -0.270346
v -0.532542 0.000000 -0.291008
v -0.550909 0.000000 -0.311671
v -0.576163 0.000000 -0.318559
v -0.601418 0.000000 -0.330038
v -0.631264 0.000000 -0.336926
v -0.486285 0.000000 -0.273403
v -0.302641 0.000000 -0.291999
v -0.486101 0.000000 -0.334724
v -0.302559 0.000000 -0.333982
v -0.303610 0.000000 0.202854
v -0.005286 0.000000 0.202854
v 0.050073 0.000000 0.347403
v -0.488140 0.000000 0.346634
v 0.078522 0.000000 0.345865
v 0.332251 0.000000 -0.336897
v 0.522932 0.000000 -0.336897
v 0.758977 0.000000 0.346634
v 0.377615 0.000000 0.347403
v 0.377615 0.000000 0.201316
v 0.530621 0.000000 0.201316
v 0.429130 0.000000 -0.113923
v 0.258439 0.000000 0.348172
v 0.968881 0.000000 0.348172
v 1.151873 0.000000 0.348172
v 1.148798 0.000000 -0.003205
v 1.324101 0.000000 -0.330746
v 1.154948 0.000000 -0.333053
v 1.061915 0.000000 -0.172358
v 0.971956 0.000000 -0.329208
v 0.795883 0.000000 -0.332284
v 0.971187 0.000000 -0.003205
v -0.711732 0.000000 -0.055603
v -0.878732 0.000000 -0.056526
v -0.880578 -0.150000 -0.191233
v -0.711732 -0.150000 -0.192156
v -1.062884 -0.150000 -0.336926
v -1.062884 -0.150000 0.354126
v -0.876920 -0.150000 0.354126
v -0.876920 -0.150000 0.051073
v -0.596826 -0.150000 0.051073
v -0.562388 -0.150000 0.037298
v -0.541726 -0.150000 0.014340
v -0.527951 -0.150000 -0.010915
v -0.516471 -0.150000 -0.031577
v -0.516471 -0.150000 -0.270346
v -0.532542 -0.150000 -0.291008
v -0.550909 -0.150000 -0.311671
v -0.576163 -0.150000 -0.318559
v -0.601418 -0.150000 -0.330038
v -0.631264 -0.150000 -0.336926
v -0.486285 -0.150000 -0.273403
v -0.302641 -0.150000 -0.291999
v -0.486101 -0.150000 -0.334724
v -0.302559 -0.150000 -0.333982
v -0.303610 -0.150000 0.202854
v -0.005286 -0.150000 0.202854
v 0.050073 -0.150000 0.347403
v -0.488140 -0.150000 0.346634
v 0.078522 -0.150000 0.345865
v 0.332251 -0.150000 -0.336897
v 0.522932 -0.150000 -0.336897
v 0.758977 -0.150000 0.346634
v 0.377615 -0.150000 0.347403
v 0.377615 -0.150000 0.201316
v 0.530621 -0.150000 0.201316
v 0.429130 -0.150000 -0.113923
v 0.258439 -0.150000 0.348172
v 0.968881 -0.150000 0.348172
v 1.151873 -0.150000 0.348172
v 1.148798 -0.150000 -0.003205
v 1.324101 -0.150000 -0.330746
v 1.154948 -0.150000 -0.333053
v 1.061915 -0.150000 -0.172358
v 0.971956 -0.150000 -0.329208
v 0.795883 -0.150000 -0.332284
v 0.971187 -0.150000 -0.003205
v -0.711732 -0.150000 -0.055603
v -0.878732 -0.150000 -0.056526
vt 0.598382 0.247478
vt 0.601777 0.265872
vt 0.556491 0.298420
vt 0.600645 0.469874
vt 0.589896 0.489940
vt 0.556491 0.397876
vt 0.824612 0.031073
vt 0.869851 0.000000
vt 0.869851 0.044662
vt 0.737228 0.496686
vt 0.750976 0.391420
vt 0.824486 0.391492
vt 0.078138 0.162610
vt 0.055277 0.392427
vt 0.000000 0.498774
vt 0.911484 0.256196
vt 0.955249 0.255919
vt 0.934643 0.379252
vt 0.463740 0.247478
vt 0.467134 0.265872
vt 0.421848 0.298420
vt 0.466003 0.469874
vt 0.455254 0.489940
vt 0.421848 0.397876
vt 0.691990 0.031073
vt 0.737228 0.000000
vt 0.737228 0.044662
vt 0.604605 0.496686
vt 0.618353 0.391420
vt 0.691864 0.391492
vt 0.245798 0.162610
vt 0.222937 0.392427
vt 0.167660 0.498774
vt 0.911484 0.752341
vt 0.955249 0.752064
vt 0.934643 0.875397
vt 0.602914 0.557942
vt 0.557091 0.612567
vt 0.557091 0.557942
vt 0.604605 0.496687
vt 0.660048 1.000000
vt 0.604605 1.000000
vt 0.501648 0.624915
vt 0.557091 0.729691
vt 0.501648 0.729691
vt 0.543252 0.802109
vt 0.501648 0.856734
vt 0.501648 0.802109
vt 0.335320 0.724041
vt 0.390763 0.823496
vt 0.335320 0.823496
vt 0.446205 0.726841
vt 0.501648 0.824954
vt 0.446205 0.824954
vt 0.390763 0.861913
vt 0.431919 0.807287
vt 0.431919 0.861913
vt 0.335320 0.503317
vt 0.390763 0.724041
vt 0.335320 0.724041
vt 0.446205 0.807287
vt 0.390763 0.739287
vt 0.446205 0.739287
vt 0.221771 0.498774
vt 0.277214 0.508793
vt 0.221771 0.508793
vt 0.277214 0.525506
vt 0.221771 0.525506
vt 0.277214 0.543894
vt 0.221771 0.543894
vt 0.277214 0.558939
vt 0.221771 0.558939
vt 0.277214 0.732842
vt 0.221771 0.732842
vt 0.501648 0.617593
vt 0.557091 0.624915
vt 0.723987 0.496687
vt 0.715491 0.551312
vt 0.715491 0.496687
vt 0.721791 0.551312
vt 0.715491 0.605937
vt 0.715491 0.551312
vt 0.221771 0.747898
vt 0.277214 0.762955
vt 0.221771 0.762955
vt 0.277214 0.747898
vt 0.446205 0.503317
vt 0.390763 0.633985
vt 0.390763 0.503317
vt 0.390763 0.739287
vt 0.446205 0.633985
vt 0.446205 0.739287
vt 0.501648 0.802109
vt 0.557091 0.729691
vt 0.557091 0.802109
vt 0.110885 0.498774
vt 0.166328 0.859192
vt 0.110886 0.859192
vt 0.602321 0.667193
vt 0.557091 0.612567
vt 0.602321 0.612567
vt 0.848113 0.541349
vt 0.792671 0.992941
vt 0.792671 0.541349
vt 0.557091 0.721818
vt 0.601429 0.776443
vt 0.557091 0.776443
vt 0.332656 0.728278
vt 0.277214 0.820863
vt 0.277214 0.728278
vt 0.259469 0.872205
vt 0.221771 0.817580
vt 0.259469 0.817580
vt 0.501648 0.620442
vt 0.446205 0.726841
vt 0.446205 0.620442
vt 0.166328 0.835264
vt 0.221771 0.498774
vt 0.221771 0.835264
vt 0.277214 0.728278
vt 0.332656 0.498774
vt 0.332656 0.728278
vt 0.737228 0.994197
vt 0.792671 0.496687
vt 0.792671 0.994197
vt 0.557091 0.503317
vt 0.604072 0.557942
vt 0.557091 0.557942
vt 0.660048 0.994621
vt 0.715491 0.496687
vt 0.715491 0.994621
vt 0.265187 0.762955
vt 0.221771 0.817580
vt 0.221771 0.762955
vt 0.501648 0.503317
vt 0.557091 0.617593
vt 0.501648 0.617593
vt 0.446205 0.503317
vt 0.501648 0.620442
vt 0.446205 0.620442
vt 0.598793 0.776443
vt 0.557091 0.831068
vt 0.557091 0.776443
vt 0.110885 0.737263
vt 0.055443 0.498774
vt 0.110885 0.498774
vt 0.110885 0.993184
vt 0.055443 0.737263
vt 0.602182 0.667193
vt 0.557091 0.721818
vt 0.557091 0.667193
vt 0.000000 0.738290
vt 0.055443 0.994210
vt 0.000000 0.994210
vt 0.000000 0.498774
vt 0.055443 0.738290
vt 0.469963 0.503317
vt 0.469963 0.000000
vt 0.515786 0.220724
vt 0.584805 0.220724
vt 0.515786 0.000000
vt 0.515340 0.299092
vt 0.514885 0.397204
vt 0.604605 0.454825
vt 0.604605 0.280921
vt 0.593291 0.230757
vt 0.576319 0.503317
vt 0.583673 0.498301
vt 0.596119 0.484923
vt 0.824623 0.000496
vt 0.869851 0.496257
vt 0.053506 0.000427
vt 0.100490 0.000000
vt 0.167660 0.496691
vt 0.123344 0.498774
vt 0.092978 0.392085
vt 0.093974 0.498480
vt 0.909248 0.000285
vt 1.000000 0.494201
vt 0.954338 0.000000
vt 0.913222 0.493630
vt 0.869851 0.496145
vt 0.958331 0.496145
vt 0.335320 0.503317
vt 0.335320 0.000000
vt 0.381144 0.220724
vt 0.450162 0.220724
vt 0.381144 0.000000
vt 0.380697 0.299092
vt 0.380243 0.397204
vt 0.469963 0.454825
vt 0.469963 0.280921
vt 0.458648 0.230757
vt 0.441676 0.503317
vt 0.449031 0.498301
vt 0.461477 0.484923
vt 0.692000 0.000496
vt 0.737228 0.496257
vt 0.221166 0.000427
vt 0.268150 0.000000
vt 0.335320 0.496691
vt 0.291004 0.498774
vt 0.260638 0.392085
vt 0.261634 0.498480
vt 0.909248 0.496430
vt 1.000000 0.990346
vt 0.954338 0.496145
vt 0.913222 0.989775
vt 0.869851 0.992289
vt 0.958331 0.992289
vt 0.602914 0.612567
vt 0.660048 0.496687
vt 0.543252 0.856734
vt 0.390763 0.724041
vt 0.501648 0.726841
vt 0.390763 0.807287
vt 0.390763 0.503317
vt 0.390763 0.807287
vt 0.277214 0.498774
vt 0.557091 0.617593
vt 0.723987 0.551312
vt 0.721791 0.605937
vt 0.446205 0.633985
vt 0.390763 0.633985
vt 0.501648 0.729691
vt 0.110886 0.889769
vt 0.166328 0.498774
vt 0.166328 0.889769
vt 0.557091 0.667193
vt 0.792671 0.496687
vt 0.848113 0.496687
vt 0.848113 0.992942
vt 0.601429 0.721818
vt 0.332656 0.820863
vt 0.221771 0.872205
vt 0.501648 0.726841
vt 0.166328 0.498774
vt 0.277214 0.498774
vt 0.737228 0.496687
vt 0.604072 0.503317
vt 0.660048 0.496687
vt 0.265187 0.817580
vt 0.557091 0.503317
vt 0.501648 0.503317
vt 0.598793 0.831068
vt 0.055443 0.993184
vt 0.602182 0.721818
vt 0.055443 0.498774
vn 0.0000 1.0000 0.0000
vn 0.0000 0.0000 1.0000
vn -1.0000 0.0000 0.0000
vn 0.0000 0.0000 -1.0000
vn 0.0055 0.0000 1.0000
vn 0.9999 0.0000 -0.0137
vn 0.0055 0.0000 -1.0000
vn 1.0000 0.0000 0.0000
vn 0.3714 0.0000 0.9285
vn 0.7433 0.0000 0.6690
vn 0.8779 0.0000 0.4789
vn 0.8742 0.0000 0.4856
vn 0.2249 0.0000 -0.9744
vn 0.4138 0.0000 -0.9104
vn 0.2631 0.0000 -0.9648
vn 0.7474 0.0000 -0.6644
vn 0.7894 0.0000 -0.6139
vn -0.0014 0.0000 1.0000
vn 0.9339 0.0000 -0.3576
vn 1.0000 0.0000 0.0020
vn 0.0040 0.0000 -1.0000
vn -1.0000 0.0000 -0.0030
vn -0.0128 0.0000 0.9999
vn 0.0020 0.0000 1.0000
vn 0.9380 0.0000 0.3465
vn -0.9519 0.0000 0.3065
vn -0.9374 0.0000 -0.3483
vn 0.9452 0.0000 -0.3264
vn 0.0175 0.0000 -0.9998
vn 0.8675 0.0000 -0.4975
vn -0.8654 0.0000 -0.5010
vn 0.0136 0.0000 -0.9999
vn 0.8817 0.0000 0.4719
vn 1.0000 0.0000 -0.0088
vn -1.0000 0.0000 -0.0066
vn -0.8826 0.0000 0.4702
s off
f 9/1/1 10/2/1 44/3/1
f 13/4/1 15/5/1 2/6/1
f 19/7/1 20/8/1 18/9/1
f 24/10/1 23/11/1 22/12/1
f 33/13/1 32/14/1 29/15/1
f 43/16/1 37/17/1 40/18/1
f 54/19/1 55/20/1 89/21/1
f 58/22/1 60/23/1 47/24/1
f 64/25/1 65/26/1 63/27/1
f 69/28/1 68/29/1 67/30/1
f 78/31/1 77/32/1 74/33/1
f 88/34/1 82/35/1 85/36/1
f 4/37/2 50/38/2 5/39/2
f 3/40/3 49/41/3 4/42/3
f 17/43/4 48/44/4 3/45/4
f 1/46/5 47/47/5 2/48/5
f 2/49/3 89/50/3 44/51/3
f 45/52/6 46/53/6 1/54/6
f 44/55/7 90/56/7 45/57/7
f 5/58/8 51/59/8 6/60/8
f 6/61/2 52/62/2 7/63/2
f 7/64/9 53/65/9 8/66/9
f 8/66/10 54/67/10 9/68/10
f 9/68/11 55/69/11 10/70/11
f 10/70/12 56/71/12 11/72/12
f 11/72/8 57/73/8 12/74/8
f 16/75/13 62/76/13 17/43/13
f 15/77/14 61/78/14 16/79/14
f 14/80/15 60/81/15 15/82/15
f 13/83/16 59/84/16 14/85/16
f 12/74/17 58/86/17 13/83/17
f 70/87/18 24/88/18 25/89/18
f 69/90/19 23/91/19 24/92/19
f 68/93/4 22/94/4 23/95/4
f 22/96/20 64/97/20 19/98/20
f 66/99/21 20/100/21 21/101/21
f 63/102/22 25/103/22 18/104/22
f 71/105/23 34/106/23 26/107/23
f 75/108/24 29/109/24 30/110/24
f 77/111/4 31/112/4 32/113/4
f 76/114/3 30/115/3 31/116/3
f 79/117/25 33/118/25 34/119/25
f 78/120/26 32/121/26 33/122/26
f 72/123/27 26/124/27 27/125/27
f 73/126/4 27/127/4 28/128/4
f 74/129/28 28/130/28 29/131/28
f 41/132/29 87/133/29 42/134/29
f 40/135/30 86/136/30 41/137/30
f 39/138/31 85/139/31 40/140/31
f 38/141/32 84/142/32 39/143/32
f 37/144/33 83/145/33 38/146/33
f 36/147/34 82/148/34 37/144/34
f 35/149/2 81/150/2 36/151/2
f 43/152/35 80/153/35 35/154/35
f 42/155/36 88/156/36 43/152/36
f 3/157/1 4/158/1 6/159/1
f 6/159/1 7/160/1 44/3/1
f 4/158/1 5/161/1 6/159/1
f 45/162/1 1/163/1 3/157/1
f 12/164/1 2/6/1 11/165/1
f 45/162/1 3/157/1 6/159/1
f 11/165/1 2/6/1 44/3/1
f 44/3/1 45/162/1 6/159/1
f 7/160/1 8/166/1 9/1/1
f 10/2/1 11/165/1 44/3/1
f 7/160/1 9/1/1 44/3/1
f 17/167/1 3/157/1 1/163/1
f 1/163/1 2/6/1 17/167/1
f 12/164/1 13/4/1 2/6/1
f 15/5/1 16/168/1 17/167/1
f 13/4/1 14/169/1 15/5/1
f 17/167/1 2/6/1 15/5/1
f 19/7/1 21/170/1 20/8/1
f 19/7/1 18/9/1 22/12/1
f 25/171/1 24/10/1 22/12/1
f 22/12/1 18/9/1 25/171/1
f 29/15/1 28/172/1 33/13/1
f 27/173/1 26/174/1 33/13/1
f 26/174/1 34/175/1 33/13/1
f 31/176/1 30/177/1 32/14/1
f 32/14/1 30/177/1 29/15/1
f 28/172/1 27/173/1 33/13/1
f 43/16/1 35/178/1 37/17/1
f 37/17/1 38/179/1 40/18/1
f 35/178/1 36/180/1 37/17/1
f 41/181/1 42/182/1 40/18/1
f 38/179/1 39/183/1 40/18/1
f 40/18/1 42/182/1 43/16/1
f 48/184/1 49/185/1 51/186/1
f 51/186/1 52/187/1 89/21/1
f 49/185/1 50/188/1 51/186/1
f 90/189/1 46/190/1 48/184/1
f 57/191/1 47/24/1 56/192/1
f 90/189/1 48/184/1 51/186/1
f 56/192/1 47/24/1 89/21/1
f 89/21/1 90/189/1 51/186/1
f 52/187/1 53/193/1 54/19/1
f 55/20/1 56/192/1 89/21/1
f 52/187/1 54/19/1 89/21/1
f 62/194/1 48/184/1 46/190/1
f 46/190/1 47/24/1 62/194/1
f 57/191/1 58/22/1 47/24/1
f 60/23/1 61/195/1 62/194/1
f 58/22/1 59/196/1 60/23/1
f 62/194/1 47/24/1 60/23/1
f 64/25/1 66/197/1 65/26/1
f 64/25/1 63/27/1 67/30/1
f 70/198/1 69/28/1 67/30/1
f 67/30/1 63/27/1 70/198/1
f 74/33/1 73/199/1 78/31/1
f 72/200/1 71/201/1 78/31/1
f 71/201/1 79/202/1 78/31/1
f 76/203/1 75/204/1 77/32/1
f 77/32/1 75/204/1 74/33/1
f 73/199/1 72/200/1 78/31/1
f 88/34/1 80/205/1 82/35/1
f 82/35/1 83/206/1 85/36/1
f 80/205/1 81/207/1 82/35/1
f 86/208/1 87/209/1 85/36/1
f 83/206/1 84/210/1 85/36/1
f 85/36/1 87/209/1 88/34/1
f 4/37/2 49/211/2 50/38/2
f 3/40/3 48/212/3 49/41/3
f 17/43/4 62/76/4 48/44/4
f 1/46/5 46/213/5 47/47/5
f 2/49/3 47/214/3 89/50/3
f 45/52/6 90/215/6 46/53/6
f 44/55/7 89/216/7 90/56/7
f 5/58/8 50/217/8 51/59/8
f 6/61/2 51/218/2 52/62/2
f 7/64/9 52/219/9 53/65/9
f 8/66/10 53/65/10 54/67/10
f 9/68/11 54/67/11 55/69/11
f 10/70/12 55/69/12 56/71/12
f 11/72/8 56/71/8 57/73/8
f 16/75/13 61/220/13 62/76/13
f 15/77/14 60/221/14 61/78/14
f 14/80/15 59/222/15 60/81/15
f 13/83/16 58/86/16 59/84/16
f 12/74/17 57/73/17 58/86/17
f 70/87/18 69/223/18 24/88/18
f 69/90/19 68/224/19 23/91/19
f 68/93/4 67/225/4 22/94/4
f 21/226/20 19/98/20 64/97/20
f 22/96/20 67/227/20 64/97/20
f 64/97/20 66/228/20 21/226/20
f 66/99/21 65/229/21 20/100/21
f 18/104/22 20/230/22 65/231/22
f 63/102/22 70/232/22 25/103/22
f 18/104/22 65/231/22 63/102/22
f 71/105/23 79/233/23 34/106/23
f 75/108/24 74/234/24 29/109/24
f 77/111/4 76/235/4 31/112/4
f 76/114/3 75/236/3 30/115/3
f 79/117/25 78/237/25 33/118/25
f 78/120/26 77/238/26 32/121/26
f 72/123/27 71/239/27 26/124/27
f 73/126/4 72/240/4 27/127/4
f 74/129/28 73/241/28 28/130/28
f 41/132/29 86/242/29 87/133/29
f 40/135/30 85/243/30 86/136/30
f 39/138/31 84/244/31 85/139/31
f 38/141/32 83/245/32 84/142/32
f 37/144/33 82/148/33 83/145/33
f 36/147/34 81/246/34 82/148/34
f 35/149/2 80/247/2 81/150/2
f 43/152/35 88/156/35 80/153/35
f 42/155/36 87/248/36 88/156/36
