# Blender v2.79 (sub 0) OBJ File: 'Quit Button.blend'
# www.blender.org
v -0.358574 0.006784 0.298277
v -0.358574 0.006784 0.438520
v -0.495126 0.006784 0.385007
v -0.495126 0.006784 0.306581
v -0.749779 0.006784 0.307504
v -0.772845 0.006784 0.301045
v -0.789453 0.006784 0.290896
v -0.805138 0.006784 0.274288
v -0.820823 0.006784 0.250299
v -0.822002 0.006784 -0.267532
v -0.813993 0.006784 -0.285152
v -0.801178 0.006784 -0.306509
v -0.786762 0.006784 -0.318790
v -0.769676 0.006784 -0.326799
v -0.750988 0.006784 -0.334808
v -0.387373 0.006784 -0.335342
v -0.371355 0.006784 -0.330003
v -0.354268 0.006784 -0.321460
v -0.339852 0.006784 -0.309179
v -0.328639 0.006784 -0.293695
v -0.319028 0.006784 -0.278210
v -0.309951 0.006784 -0.257921
v -0.308884 0.006784 0.245587
v -0.315826 0.006784 0.260004
v -0.322767 0.006784 0.270149
v -0.331310 0.006784 0.280294
v -0.341455 0.006784 0.289905
v -0.494482 0.006784 0.176313
v -0.493713 0.006784 -0.201206
v -0.645951 0.006784 -0.201206
v -0.644413 0.006784 0.175544
v -0.278230 0.006784 0.251766
v 0.013011 0.006784 0.310469
v -0.278238 0.006784 0.309419
v -0.278144 0.006784 -0.337546
v -0.101943 0.006784 -0.337546
v -0.102389 0.006784 0.181268
v 0.056904 0.006784 0.181268
v 0.059453 0.006784 -0.336438
v 0.232912 0.006784 -0.336438
v 0.233835 0.006784 0.311264
v 0.264282 0.006784 0.307574
v 0.443277 0.006784 0.308496
v 0.440509 0.006784 -0.335516
v 0.263360 0.006784 -0.335516
v 0.631600 0.006784 0.362169
v 0.808529 0.006784 0.412593
v 0.631256 0.006784 0.435082
v 0.808604 0.006784 0.470828
v 0.630577 0.006784 0.578835
v 0.808649 0.006784 0.505022
v 0.807727 0.006784 -0.205420
v 0.905528 0.006784 -0.205420
v 0.905528 0.006784 -0.334592
v 0.467268 0.006784 -0.334592
v 0.467268 0.006784 -0.201730
v 0.634268 0.006784 -0.202652
v -0.358574 -0.143216 0.298277
v -0.358574 -0.143216 0.438520
v -0.495126 -0.143216 0.385007
v -0.495126 -0.143216 0.306581
v -0.749778 -0.143216 0.307504
v -0.772845 -0.143216 0.301045
v -0.789453 -0.143216 0.290896
v -0.805138 -0.143216 0.274288
v -0.820823 -0.143216 0.250299
v -0.822002 -0.143216 -0.267532
v -0.813993 -0.143216 -0.285152
v -0.801178 -0.143216 -0.306509
v -0.786762 -0.143216 -0.318790
v -0.769676 -0.143216 -0.326799
v -0.750988 -0.143216 -0.334808
v -0.387373 -0.143216 -0.335342
v -0.371355 -0.143216 -0.330003
v -0.354268 -0.143216 -0.321460
v -0.339852 -0.143216 -0.309179
v -0.328639 -0.143216 -0.293695
v -0.319028 -0.143216 -0.278210
v -0.309951 -0.143216 -0.257921
v -0.308884 -0.143216 0.245587
v -0.315826 -0.143216 0.260004
v -0.322767 -0.143216 0.270149
v -0.331310 -0.143216 0.280294
v -0.341455 -0.143216 0.289905
v -0.494482 -0.143216 0.176313
v -0.493713 -0.143216 -0.201206
v -0.645951 -0.143216 -0.201206
v -0.644413 -0.143216 0.175544
v -0.278230 -0.143216 0.251766
v 0.013011 -0.143216 0.310469
v -0.278238 -0.143216 0.309419
v -0.278144 -0.143216 -0.337546
v -0.101943 -0.143216 -0.337546
v -0.102388 -0.143216 0.181268
v 0.056905 -0.143216 0.181268
v 0.059453 -0.143216 -0.336438
v 0.232912 -0.143216 -0.336438
v 0.233835 -0.143216 0.311264
v 0.264282 -0.143216 0.307574
v 0.443277 -0.143216 0.308496
v 0.440509 -0.143216 -0.335516
v 0.263360 -0.143216 -0.335516
v 0.631600 -0.143216 0.362169
v 0.808529 -0.143216 0.412594
v 0.631256 -0.143216 0.435082
v 0.808604 -0.143216 0.470828
v 0.630577 -0.143216 0.578835
v 0.808649 -0.143216 0.505022
v 0.807727 -0.143216 -0.205420
v 0.905528 -0.143216 -0.205420
v 0.905528 -0.143216 -0.334592
v 0.467268 -0.143216 -0.334592
v 0.467268 -0.143216 -0.201730
v 0.634268 -0.143216 -0.202652
vt 0.897330 0.029084
vt 0.921179 0.047131
vt 0.913382 0.024000
vt 0.166304 0.024805
vt 0.192751 0.038179
vt 0.203842 0.038926
vt 0.000000 0.000000
vt 1.000000 0.000000
vt 1.000000 1.000000
vt 0.000000 0.000000
vt 1.000000 0.000000
vt 0.000000 0.000000
vt 1.000000 0.000000
vt 1.000000 1.000000
vt 0.000000 0.000000
vt 1.000000 0.000000
vt 1.000000 1.000000
vt 0.000000 0.000000
vt 1.000000 0.000000
vt 0.000000 0.000000
vt 1.000000 0.000000
vt 1.000000 1.000000
vt 0.883521 0.030216
vt 0.887474 0.066373
vt 0.891872 0.033837
vt 0.164967 0.039780
vt 0.195233 0.042821
vt 0.207329 0.046838
vt 0.000000 0.000000
vt 1.000000 0.000000
vt 1.000000 1.000000
vt 0.000000 0.000000
vt 1.000000 0.000000
vt 0.000000 0.000000
vt 1.000000 0.000000
vt 1.000000 1.000000
vt 0.000000 0.000000
vt 1.000000 0.000000
vt 1.000000 1.000000
vt 0.000000 0.000000
vt 1.000000 0.000000
vt 0.000000 0.000000
vt 1.000000 0.000000
vt 1.000000 1.000000
vt 0.083668 0.039861
vt 0.050642 0.026369
vt 0.098257 0.024577
vt 0.197770 0.020763
vt 0.195367 0.030210
vt 0.193625 0.021334
vt 0.205069 0.026740
vt 0.202217 0.020192
vt 0.211360 0.023938
vt 0.207914 0.019694
vt 0.220703 0.017878
vt 0.216740 0.020271
vt 0.859278 0.029763
vt 0.868253 0.017128
vt 0.863031 0.023027
vt 0.874486 0.031027
vt 0.871416 0.027734
vt 0.882928 0.029508
vt 0.877920 0.029582
vt 0.890317 0.029030
vt 0.999974 0.049392
vt 0.919275 0.064598
vt 0.981233 0.050300
vt 0.911001 0.062931
vt 0.961879 0.050685
vt 0.900450 0.063227
vt 0.941675 0.050270
vt 0.883124 0.057949
vt 0.907094 0.054459
vt 0.876437 0.053023
vt 0.893583 0.059221
vt 0.183902 0.039848
vt 0.182376 0.037105
vt 0.172581 0.037592
vt 0.172219 0.035464
vt 0.161308 0.035707
vt 0.162245 0.033605
vt 0.149784 0.034028
vt 0.152133 0.031515
vt 0.000026 0.030252
vt 0.000000 0.000000
vt 1.000000 0.000000
vt 1.000000 1.000000
vt 0.000000 0.000000
vt 1.000000 0.000000
vt 0.000000 0.000000
vt 1.000000 0.000000
vt 1.000000 1.000000
vt 0.000000 0.000000
vt 1.000000 0.000000
vt 1.000000 1.000000
vt 0.000000 0.000000
vt 1.000000 0.000000
vt 1.000000 1.000000
vt 0.000000 0.000000
vt 1.000000 0.000000
vt 1.000000 1.000000
vt 0.000000 0.000000
vt 1.000000 0.000000
vt 1.000000 1.000000
vt 0.000000 0.000000
vt 1.000000 0.000000
vt 1.000000 1.000000
vt 0.000000 0.000000
vt 1.000000 0.000000
vt 1.000000 1.000000
vt 0.000000 0.000000
vt 1.000000 1.000000
vt 0.000000 0.000000
vt 1.000000 1.000000
vt 0.000000 0.000000
vt 1.000000 0.000000
vt 0.000000 0.000000
vt 1.000000 0.000000
vt 1.000000 1.000000
vt 1.000000 1.000000
vt 0.000000 0.000000
vt 1.000000 0.000000
vt 1.000000 1.000000
vt 0.000000 0.000000
vt 1.000000 0.000000
vt 1.000000 1.000000
vt 0.000000 0.000000
vt 0.000000 0.000000
vt 1.000000 0.000000
vt 1.000000 1.000000
vt 0.848046 0.053403
vt 0.817086 0.000026
vt 0.266348 0.005401
vt 0.263644 0.053403
vt 1.000000 0.000000
vt 0.000000 0.000000
vt 1.000000 1.000000
vt 0.000000 0.000000
vt 1.000000 0.000000
vt 0.000000 0.000000
vt 1.000000 0.000000
vt 1.000000 0.000000
vt 1.000000 0.000000
vt 1.000000 1.000000
vt 1.000000 0.000000
vt 1.000000 1.000000
vt 1.000000 0.000000
vt 1.000000 0.000000
vt 1.000000 0.000000
vt 0.807489 0.051105
vt 0.925668 0.068388
vt 0.795225 0.035224
vt 0.284958 0.029271
vt 0.200064 0.028584
vt 0.281741 0.041533
vt 1.000000 0.000000
vt 1.000000 1.000000
vt 1.000000 0.000000
vt 1.000000 1.000000
vt 1.000000 0.000000
vt 0.000000 0.000000
vt 1.000000 0.000000
vt 1.000000 1.000000
vt 1.000000 0.000000
vt 1.000000 1.000000
vt 1.000000 0.000000
vt 1.000000 1.000000
vt 0.000000 0.000000
vt 1.000000 1.000000
vt 1.000000 0.000000
vt 1.000000 1.000000
vt 0.000000 0.000000
vt 0.000000 0.000000
vt 0.000000 0.000000
vt 0.000000 0.000000
vt 1.000000 1.000000
vt 1.000000 0.000000
vt 1.000000 0.000000
vt 1.000000 1.000000
vt 1.000000 1.000000
vt 0.000000 0.000000
vt 1.000000 0.000000
vt 1.000000 1.000000
vt 1.000000 0.000000
vt 1.000000 1.000000
vt 1.000000 0.000000
vt 1.000000 1.000000
vt 0.000000 0.000000
vt 1.000000 0.000000
vt 1.000000 0.000000
vt 1.000000 1.000000
vt 1.000000 1.000000
vt 1.000000 1.000000
vt 0.000000 0.000000
vt 1.000000 0.000000
vt 1.000000 1.000000
vn 0.0000 1.0000 0.0000
vn -0.3649 -0.0000 0.9311
vn -1.0000 0.0000 0.0000
vn -0.2696 0.0000 0.9630
vn 0.0036 0.0000 1.0000
vn -0.5215 -0.0000 0.8533
vn -0.7270 -0.0000 0.6866
vn -0.8370 0.0000 0.5473
vn -1.0000 0.0000 0.0023
vn -0.9104 -0.0000 -0.4138
vn -0.8575 -0.0000 -0.5145
vn -0.6485 -0.0000 -0.7612
vn -0.4244 -0.0000 -0.9055
vn -0.3939 -0.0000 -0.9191
vn -0.0015 -0.0000 -1.0000
vn 0.3162 -0.0000 -0.9487
vn 0.4472 0.0000 -0.8944
vn 0.6485 0.0000 -0.7612
vn 0.8099 0.0000 -0.5865
vn 0.8496 0.0000 -0.5274
vn 0.9128 0.0000 -0.4084
vn 1.0000 0.0000 -0.0021
vn 0.9010 0.0000 0.4338
vn 0.8253 0.0000 0.5647
vn 0.7649 0.0000 0.6441
vn 0.6877 0.0000 0.7260
vn 0.4394 0.0000 0.8983
vn 1.0000 0.0000 0.0000
vn -0.0036 -0.0000 1.0000
vn 0.0000 0.0000 -1.0000
vn 1.0000 0.0000 0.0009
vn -1.0000 -0.0000 -0.0001
vn -1.0000 -0.0000 -0.0049
vn 1.0000 0.0000 -0.0014
vn -0.0052 0.0000 1.0000
vn 1.0000 0.0000 -0.0043
vn -1.0000 -0.0000 0.0014
vn 0.3829 0.0000 0.9238
vn 1.0000 0.0000 -0.0013
vn 0.0000 0.0000 1.0000
vn 0.0055 0.0000 1.0000
vn -1.0000 0.0000 -0.0047
s off
f 14/1/1 20/2/1 15/3/1
f 4/4/1 24/5/1 23/6/1
f 32/7/1 34/8/1 33/9/1
f 38/10/1 37/11/1 33/9/1
f 42/12/1 44/13/1 45/14/1
f 48/15/1 51/16/1 49/17/1
f 47/18/1 48/19/1 49/17/1
f 52/20/1 54/21/1 57/22/1
f 71/23/1 77/24/1 72/25/1
f 61/26/1 81/27/1 80/28/1
f 89/29/1 91/30/1 90/31/1
f 95/32/1 94/33/1 90/31/1
f 99/34/1 101/35/1 102/36/1
f 105/37/1 108/38/1 106/39/1
f 104/40/1 105/41/1 106/39/1
f 109/42/1 111/43/1 114/44/1
f 60/45/2 2/46/2 3/47/2
f 61/26/3 3/47/3 4/4/3
f 6/48/4 62/49/4 5/50/4
f 62/49/5 4/4/5 5/50/5
f 64/51/6 6/48/6 7/52/6
f 65/53/7 7/52/7 8/54/7
f 66/55/8 8/54/8 9/56/8
f 67/57/9 9/56/9 10/58/9
f 68/59/10 10/58/10 11/60/10
f 69/61/11 11/60/11 12/62/11
f 70/63/12 12/62/12 13/64/12
f 71/23/13 13/64/13 14/1/13
f 72/25/14 14/1/14 15/3/14
f 16/65/15 72/25/15 15/3/15
f 74/66/16 16/65/16 17/67/16
f 75/68/17 17/67/17 18/69/17
f 76/70/18 18/69/18 19/71/18
f 77/24/19 19/71/19 20/2/19
f 78/72/20 20/2/20 21/73/20
f 79/74/21 21/73/21 22/75/21
f 80/28/22 22/75/22 23/6/22
f 24/5/23 80/28/23 23/6/23
f 82/76/24 24/5/24 25/77/24
f 83/78/25 25/77/25 26/79/25
f 84/80/26 26/79/26 27/81/26
f 58/82/27 27/81/27 1/83/27
f 59/84/28 1/83/28 2/46/28
f 90/85/29 41/86/29 33/9/29
f 38/10/30 94/33/30 37/87/30
f 94/88/31 36/89/31 37/87/31
f 36/90/30 92/91/30 35/92/30
f 97/93/30 39/94/30 40/95/30
f 35/96/32 89/97/32 32/98/32
f 96/99/33 38/100/33 39/101/33
f 98/102/34 40/103/34 41/104/34
f 43/105/35 99/106/35 100/107/35
f 44/108/30 102/109/30 45/14/30
f 43/105/36 101/35/36 44/110/36
f 45/111/37 99/106/37 42/112/37
f 50/113/38 108/38/38 51/114/38
f 106/115/39 104/116/39 49/17/39
f 53/117/40 109/118/40 110/119/40
f 53/117/28 111/43/28 54/120/28
f 54/121/30 112/122/30 55/123/30
f 55/124/3 113/125/3 56/126/3
f 57/127/41 113/125/41 114/44/41
f 46/128/42 103/129/42 105/130/42
f 29/131/1 22/75/1 21/73/1
f 21/73/1 20/2/1 29/131/1
f 19/71/1 18/69/1 16/65/1
f 17/67/1 16/65/1 18/69/1
f 15/3/1 20/2/1 16/65/1
f 13/64/1 12/62/1 14/1/1
f 11/60/1 10/58/1 30/132/1
f 30/132/1 29/131/1 11/60/1
f 20/2/1 11/60/1 29/131/1
f 16/65/1 20/2/1 19/71/1
f 12/62/1 11/60/1 14/1/1
f 20/2/1 14/1/1 11/60/1
f 31/133/1 30/132/1 10/58/1
f 10/58/1 9/56/1 31/133/1
f 8/54/1 7/52/1 5/50/1
f 6/48/1 5/50/1 7/52/1
f 4/4/1 3/47/1 1/83/1
f 1/83/1 27/81/1 4/4/1
f 3/47/1 2/46/1 1/83/1
f 8/54/1 5/50/1 4/4/1
f 31/133/1 9/56/1 4/4/1
f 22/75/1 29/131/1 28/134/1
f 28/134/1 31/133/1 4/4/1
f 8/54/1 4/4/1 9/56/1
f 27/81/1 26/79/1 4/4/1
f 25/77/1 24/5/1 4/4/1
f 23/6/1 22/75/1 28/134/1
f 28/134/1 4/4/1 23/6/1
f 26/79/1 25/77/1 4/4/1
f 32/7/1 33/135/1 37/87/1
f 41/136/1 40/103/1 38/137/1
f 40/138/1 39/94/1 38/137/1
f 36/90/1 35/139/1 37/87/1
f 41/136/1 38/100/1 33/9/1
f 37/140/1 35/139/1 32/98/1
f 42/12/1 43/141/1 44/110/1
f 48/15/1 50/142/1 51/114/1
f 47/18/1 46/143/1 48/144/1
f 46/128/1 47/145/1 52/146/1
f 52/20/1 53/147/1 54/120/1
f 54/121/1 55/148/1 57/22/1
f 57/127/1 46/143/1 52/146/1
f 55/124/1 56/149/1 57/22/1
f 86/150/1 79/74/1 78/72/1
f 78/72/1 77/24/1 86/150/1
f 76/70/1 75/68/1 73/151/1
f 74/66/1 73/151/1 75/68/1
f 72/25/1 77/24/1 73/151/1
f 70/63/1 69/61/1 71/23/1
f 68/59/1 67/57/1 87/152/1
f 87/152/1 86/150/1 68/59/1
f 77/24/1 68/59/1 86/150/1
f 73/151/1 77/24/1 76/70/1
f 69/61/1 68/59/1 71/23/1
f 77/24/1 71/23/1 68/59/1
f 88/153/1 87/152/1 67/57/1
f 67/57/1 66/55/1 88/153/1
f 65/53/1 64/51/1 62/49/1
f 63/154/1 62/49/1 64/51/1
f 61/26/1 60/45/1 58/82/1
f 58/82/1 84/80/1 61/26/1
f 60/45/1 59/84/1 58/82/1
f 65/53/1 62/49/1 61/26/1
f 88/153/1 66/55/1 61/26/1
f 79/74/1 86/150/1 85/155/1
f 85/155/1 88/153/1 61/26/1
f 65/53/1 61/26/1 66/55/1
f 84/80/1 83/78/1 61/26/1
f 82/76/1 81/27/1 61/26/1
f 80/28/1 79/74/1 85/155/1
f 85/155/1 61/26/1 80/28/1
f 83/78/1 82/76/1 61/26/1
f 89/29/1 90/156/1 94/157/1
f 98/102/1 97/158/1 95/159/1
f 97/93/1 96/160/1 95/159/1
f 93/161/1 92/91/1 94/157/1
f 98/102/1 95/162/1 90/31/1
f 94/88/1 92/91/1 89/163/1
f 99/34/1 100/164/1 101/165/1
f 105/37/1 107/166/1 108/167/1
f 104/40/1 103/129/1 105/130/1
f 103/168/1 104/116/1 109/169/1
f 109/42/1 110/170/1 111/171/1
f 111/172/1 112/122/1 114/44/1
f 114/173/1 103/129/1 109/169/1
f 112/174/1 113/125/1 114/44/1
f 60/45/2 59/84/2 2/46/2
f 61/26/3 60/45/3 3/47/3
f 6/48/4 63/154/4 62/49/4
f 62/49/5 61/26/5 4/4/5
f 64/51/6 63/154/6 6/48/6
f 65/53/7 64/51/7 7/52/7
f 66/55/8 65/53/8 8/54/8
f 67/57/9 66/55/9 9/56/9
f 68/59/10 67/57/10 10/58/10
f 69/61/11 68/59/11 11/60/11
f 70/63/12 69/61/12 12/62/12
f 71/23/13 70/63/13 13/64/13
f 72/25/14 71/23/14 14/1/14
f 16/65/15 73/151/15 72/25/15
f 74/66/16 73/151/16 16/65/16
f 75/68/17 74/66/17 17/67/17
f 76/70/18 75/68/18 18/69/18
f 77/24/19 76/70/19 19/71/19
f 78/72/20 77/24/20 20/2/20
f 79/74/21 78/72/21 21/73/21
f 80/28/22 79/74/22 22/75/22
f 24/5/23 81/27/23 80/28/23
f 82/76/24 81/27/24 24/5/24
f 83/78/25 82/76/25 25/77/25
f 84/80/26 83/78/26 26/79/26
f 58/82/27 84/80/27 27/81/27
f 59/84/28 58/82/28 1/83/28
f 33/175/29 34/8/29 91/176/29
f 90/85/29 98/177/29 41/104/29
f 33/175/29 91/30/29 90/31/29
f 38/10/30 95/162/30 94/157/30
f 94/88/31 93/178/31 36/179/31
f 36/90/30 93/178/30 92/180/30
f 97/93/30 96/160/30 39/101/30
f 34/181/32 32/182/32 89/163/32
f 35/96/32 92/91/32 89/163/32
f 89/29/32 91/30/32 34/183/32
f 96/99/33 95/162/33 38/137/33
f 98/102/34 97/158/34 40/95/34
f 43/105/35 42/184/35 99/185/35
f 44/108/30 101/35/30 102/36/30
f 43/105/36 100/164/36 101/165/36
f 45/111/37 102/109/37 99/185/37
f 50/113/38 107/166/38 108/167/38
f 47/18/39 49/186/39 104/187/39
f 51/188/39 108/38/39 106/39/39
f 104/40/39 109/118/39 52/146/39
f 51/188/39 106/189/39 49/17/39
f 104/40/39 52/190/39 47/191/39
f 53/117/40 52/190/40 109/169/40
f 53/117/28 110/170/28 111/171/28
f 54/121/30 111/43/30 112/192/30
f 55/124/3 112/122/3 113/193/3
f 57/127/41 56/149/41 113/193/41
f 107/194/42 50/142/42 48/144/42
f 46/128/42 57/195/42 114/44/42
f 107/194/42 48/19/42 105/130/42
f 114/173/42 103/129/42 46/196/42
f 105/37/42 48/19/42 46/196/42
